<svg width="512" height="378" viewBox="0 0 512 378" fill="none" xmlns="http://www.w3.org/2000/svg">
<path d="M256 348.99C396.901 348.99 511.124 346.665 511.124 343.796C511.124 340.927 396.901 338.601 256 338.601C115.099 338.601 0.875977 340.927 0.875977 343.796C0.875977 346.665 115.099 348.99 256 348.99Z" fill="#E0ECFF"/>
<mask id="mask0_105_847" style="mask-type:luminance" maskUnits="userSpaceOnUse" x="9" y="0" width="499" height="342">
<path d="M465.731 341.761H68.4637C18.2604 341.761 2.76263 268.985 11.6875 222.395C28.0659 136.892 134.371 65.5143 190.385 30.2961C228.279 6.46863 270.985 -1.71393 311.244 0.500165C363.287 3.36232 415.091 24.4694 449.856 69.8368C490.538 122.932 530.735 229.432 490.253 309.149C484.111 321.409 475.803 332.457 465.731 341.761Z" fill="white"/>
</mask>
<g mask="url(#mask0_105_847)">
<path d="M465.731 341.761H68.4637C18.2604 341.761 2.76263 268.985 11.6875 222.395C28.0659 136.892 134.371 65.5143 190.385 30.2961C228.279 6.46863 270.985 -1.71393 311.244 0.500165C363.287 3.36232 415.091 24.4694 449.856 69.8368C490.538 122.932 530.735 229.432 490.253 309.149C484.111 321.409 475.803 332.457 465.731 341.761Z" fill="url(#paint0_linear_105_847)"/>
<path d="M29.1131 94.974C29.0274 90.1122 30.9433 83.7115 37.9574 80.1575C41.0812 78.574 50.7508 77.4306 55.261 81.3815C56.4051 77.2122 66.7176 58.3289 87.858 63.9521C104.452 68.3668 105.782 84.3048 105.408 85.2544C106.758 81.5061 109.269 78.2865 112.576 76.0644C115.882 73.8423 119.812 72.7338 123.792 72.9002C127.773 73.0666 131.596 74.4993 134.706 76.9896C137.816 79.4799 140.049 82.8978 141.081 86.7457C142.018 86.7556 142.951 86.8442 143.873 87.0104C150.821 88.2505 154.713 91.9971 156.787 94.9746L29.1131 94.974Z" fill="white"/>
<path d="M496.439 117.371C487.504 116.379 478.489 118.659 474.41 125.998C472.871 125.428 471.262 125.066 469.626 124.924C459.061 124.092 448.64 132.827 447.536 143.436C441.281 139.753 430.175 145.918 432.461 152.849C431.314 149.374 424.87 142.671 413.041 145.651C407.623 147.016 403.886 152.539 402.328 157.085H515.023C515.023 157.085 520.292 120.016 496.439 117.371Z" fill="white"/>
<path d="M506.091 248.437C499.703 251.176 488.409 261.615 491.519 271.523C486.405 258.304 468.42 247.45 447.681 254.71C442.839 256.404 438.577 260.321 435.225 265.186C432.251 263.22 429.03 261.656 425.645 260.536C403.923 253.331 380.347 265.655 372.555 287.842C370.588 293.425 369.748 299.344 370.085 305.254C353.283 304.309 337.077 310.502 328.622 328.267C319.359 320.514 295.86 306.52 261.739 321.551C253.353 315.759 243.038 313.466 232.988 315.159C221.54 317.209 213.882 330.645 213.882 330.645C213.882 330.645 199.541 315.604 181.926 310.219C166.689 305.562 148.465 310.155 141.441 313.472C139.943 278.853 87.352 257.497 62.555 288.944C59.6413 265.012 35.7321 255.331 14.5118 271.139C9.22474 254.03 -12.5573 246.957 -26.6017 250.873C-27.7085 251.182 -28.879 251.553 -30.0889 251.982V363.318H515.758V246.783C512.449 246.54 509.131 247.108 506.091 248.437Z" fill="white"/>
<path d="M256 348.99C396.901 348.99 511.124 346.665 511.124 343.796C511.124 340.927 396.901 338.601 256 338.601C115.099 338.601 0.875977 340.927 0.875977 343.796C0.875977 346.665 115.099 348.99 256 348.99Z" fill="url(#paint1_linear_105_847)"/>
<path d="M53.4021 145.735C24.3959 158.647 1.40983 173.628 -16.0264 189.768V355.603C21.4725 374.497 68.7331 353.845 68.7331 353.845C68.7331 353.845 -7.19487 303.024 62.575 201.638C114.103 126.759 200.893 115.294 387.871 98.3785L395.333 94.9469C395.333 94.9469 175.597 91.3355 53.4021 145.735Z" fill="white"/>
</g>
<path d="M165.422 224.272C164.505 222.854 163.326 221.624 161.948 220.647C161.381 220.249 160.781 219.901 160.155 219.606C158.473 218.832 156.642 218.437 154.791 218.45C154.218 216.845 153.307 215.381 152.119 214.158C150.932 212.934 149.497 211.979 147.909 211.358C146.322 210.736 144.62 210.462 142.918 210.554C141.215 210.646 139.553 211.102 138.041 211.892C134.752 207.917 130.033 205.133 124.896 204.722C114.929 203.938 105.101 212.176 104.059 222.183C98.9379 219.166 90.3725 223.153 89.6123 228.534H185.475C180.091 223.285 171.264 222.548 165.422 224.272Z" fill="white"/>
<path d="M448.838 97.7028L447.321 93.558L436.935 77.8004L430.754 77.783L428.704 87.9129L448.838 97.7028Z" fill="#94C3EB"/>
<path d="M436.934 77.8023L430.753 77.7849L428.487 74.0151L434.613 74.227L436.934 77.8023Z" fill="#48769E"/>
<path d="M371.316 97.2087L367.311 96.2669L366.444 95.6323L370.91 96.5381L371.316 97.2087Z" fill="#48769E"/>
<path d="M384.625 92.45L385.971 89.7392L384.284 89.1723L376.876 92.0319L384.625 92.45Z" fill="#94C3EB"/>
<mask id="mask1_105_847" style="mask-type:luminance" maskUnits="userSpaceOnUse" x="370" y="83" width="116" height="20">
<path d="M485.051 92.8249C483.457 90.2739 478.111 84.6346 472.054 83.7231C465.997 82.8116 420.26 86.8855 414.383 87.3725C408.507 87.8595 391.186 89.9956 384.788 90.8086C378.389 91.6216 368.895 92.4088 371.092 94.2061C373.288 96.0034 386.149 100.593 390.913 101.895C395.678 103.196 459.196 101.186 468.105 101.016C477.014 100.846 482.045 98.4095 483.798 97.4528C485.63 96.453 486.226 94.7073 485.051 92.8249Z" fill="white"/>
</mask>
<g mask="url(#mask1_105_847)">
<path d="M485.051 92.8249C483.457 90.2739 478.111 84.6346 472.054 83.7231C465.997 82.8116 420.26 86.8855 414.383 87.3725C408.507 87.8595 391.186 89.9956 384.788 90.8086C378.389 91.6216 368.895 92.4088 371.092 94.2061C373.288 96.0034 386.149 100.593 390.913 101.895C395.678 103.196 459.196 101.186 468.105 101.016C477.014 100.846 482.045 98.4095 483.798 97.4528C485.63 96.453 486.226 94.7073 485.051 92.8249Z" fill="#94C3EB"/>
<path d="M473.495 89.0538C474.825 88.9463 476.148 88.7719 477.46 88.5314C478.488 88.1817 479.471 87.7119 480.389 87.1315L482.527 89.2677C481.183 90.3012 479.605 90.9882 477.933 91.2679C477.096 91.4412 475.884 91.6461 474.731 91.8032C474.355 90.8621 473.941 89.9447 473.495 89.0538Z" fill="#48769E"/>
<path d="M470.011 89.3791C470.552 89.3321 471.432 89.2548 472.405 89.1614C472.799 90.0942 473.203 91.0192 473.611 91.943C472.935 92.0468 472.249 92.0751 471.566 92.0274C471.008 91.914 470.113 90.6102 469.732 89.9408C469.704 89.8865 469.69 89.8264 469.689 89.7655C469.689 89.7045 469.703 89.6443 469.73 89.5898C469.758 89.5352 469.797 89.4877 469.846 89.4511C469.895 89.4146 469.951 89.3899 470.011 89.3791Z" fill="#48769E"/>
</g>
<path d="M385.901 91.2164L372.154 82.11L365.97 82.8586L372.261 93.5606L385.901 91.2164Z" fill="#94C3EB"/>
<path d="M380.634 92.1215L368.549 82.5468L365.972 82.8586L372.263 93.5606L380.634 92.1215Z" fill="#48769E"/>
<path d="M380.311 95.7045L370.91 96.5381L366.444 95.6323L372.536 94.0161L380.311 95.7045Z" fill="#94C3EB"/>
<path d="M380.31 95.7045L370.909 96.5381L371.315 97.2087L380.923 97.1378L380.31 95.7045Z" fill="#48769E"/>
<path d="M460.394 90.6179C460.246 90.6393 460.111 90.7117 460.012 90.8225C459.913 90.9333 459.855 91.0754 459.85 91.2241L459.82 91.6834C459.809 91.7508 459.812 91.8199 459.831 91.8857C459.849 91.9514 459.882 92.0124 459.927 92.0641C459.972 92.1158 460.027 92.157 460.09 92.1848C460.152 92.2127 460.22 92.2264 460.288 92.2251C460.435 92.2034 460.57 92.1309 460.669 92.0202C460.768 91.9095 460.826 91.7675 460.831 91.6189L460.861 91.1596C460.873 91.0923 460.869 91.0233 460.85 90.9575C460.832 90.8918 460.799 90.8309 460.754 90.7792C460.71 90.7275 460.654 90.6863 460.592 90.6584C460.53 90.6305 460.462 90.6167 460.394 90.6179Z" fill="#48769E"/>
<path d="M458.572 90.7351C458.425 90.7566 458.29 90.829 458.191 90.9398C458.091 91.0505 458.034 91.1926 458.029 91.3413L457.998 91.8006C457.987 91.868 457.991 91.937 458.01 92.0027C458.028 92.0685 458.061 92.1294 458.105 92.1811C458.15 92.2328 458.205 92.274 458.268 92.3019C458.33 92.3298 458.398 92.3436 458.466 92.3424C458.613 92.3208 458.748 92.2483 458.848 92.1376C458.947 92.0269 459.004 91.8848 459.01 91.7362L459.04 91.2769C459.051 91.2095 459.047 91.1405 459.029 91.0748C459.011 91.009 458.978 90.9481 458.933 90.8964C458.889 90.8447 458.833 90.8035 458.771 90.7756C458.708 90.7477 458.641 90.7339 458.572 90.7351Z" fill="#48769E"/>
<path d="M456.752 90.8511C456.605 90.8728 456.471 90.9453 456.371 91.056C456.272 91.1668 456.215 91.3087 456.209 91.4573L456.179 91.9166C456.168 91.984 456.172 92.053 456.19 92.1187C456.209 92.1845 456.241 92.2453 456.286 92.297C456.331 92.3487 456.386 92.39 456.448 92.4179C456.511 92.4457 456.579 92.4596 456.647 92.4584C456.794 92.4369 456.929 92.3645 457.028 92.2537C457.128 92.143 457.185 92.0009 457.19 91.8522L457.221 91.3929C457.232 91.3254 457.228 91.2564 457.21 91.1906C457.191 91.1248 457.158 91.0639 457.114 91.0122C457.069 90.9605 457.013 90.9192 456.951 90.8914C456.889 90.8636 456.821 90.8498 456.752 90.8511Z" fill="#48769E"/>
<path d="M454.933 90.967C454.786 90.9886 454.651 91.061 454.551 91.1718C454.452 91.2825 454.395 91.4245 454.389 91.5732L454.359 92.0331C454.348 92.1005 454.351 92.1695 454.37 92.2353C454.388 92.301 454.421 92.3619 454.466 92.4136C454.51 92.4653 454.566 92.5065 454.628 92.5344C454.69 92.5623 454.758 92.5761 454.826 92.5749C454.974 92.5534 455.109 92.481 455.208 92.3703C455.307 92.2595 455.365 92.1174 455.37 91.9687L455.4 91.5088C455.412 91.4414 455.408 91.3724 455.389 91.3066C455.371 91.2409 455.338 91.18 455.294 91.1283C455.249 91.0766 455.193 91.0354 455.131 91.0075C455.069 90.9796 455.001 90.9658 454.933 90.967Z" fill="#48769E"/>
<path d="M453.11 91.0836C452.963 91.1052 452.828 91.1777 452.729 91.2885C452.629 91.3992 452.572 91.5412 452.567 91.6898L452.537 92.1492C452.525 92.2165 452.529 92.2855 452.548 92.3513C452.566 92.417 452.599 92.4779 452.643 92.5296C452.688 92.5813 452.744 92.6225 452.806 92.6504C452.868 92.6783 452.936 92.6921 453.004 92.6909C453.151 92.6692 453.286 92.5967 453.386 92.486C453.485 92.3753 453.542 92.2333 453.548 92.0847L453.578 91.6254C453.589 91.558 453.586 91.4889 453.567 91.4231C453.549 91.3573 453.516 91.2964 453.471 91.2447C453.426 91.193 453.371 91.1518 453.308 91.1239C453.246 91.0961 453.178 91.0823 453.11 91.0836Z" fill="#48769E"/>
<path d="M451.292 91.1996C451.145 91.2212 451.01 91.2936 450.911 91.4044C450.811 91.5151 450.754 91.6571 450.748 91.8058L450.718 92.2651C450.707 92.3325 450.711 92.4015 450.729 92.4672C450.748 92.533 450.78 92.5938 450.825 92.6455C450.87 92.6972 450.925 92.7385 450.988 92.7664C451.05 92.7942 451.118 92.8081 451.186 92.8069C451.333 92.7853 451.468 92.7128 451.567 92.6021C451.667 92.4914 451.724 92.3493 451.73 92.2007L451.76 91.7414C451.771 91.674 451.767 91.605 451.749 91.5392C451.73 91.4735 451.698 91.4126 451.653 91.3609C451.608 91.3092 451.553 91.268 451.49 91.2401C451.428 91.2122 451.36 91.1984 451.292 91.1996Z" fill="#48769E"/>
<path d="M446.843 91.4843C446.696 91.5058 446.561 91.5783 446.462 91.689C446.363 91.7998 446.305 91.9419 446.3 92.0905L446.27 92.5498C446.259 92.6172 446.263 92.6862 446.281 92.7519C446.3 92.8177 446.332 92.8786 446.377 92.9303C446.422 92.982 446.477 93.0232 446.539 93.0511C446.602 93.079 446.669 93.0928 446.738 93.0916C446.885 93.0699 447.02 92.9974 447.119 92.8867C447.218 92.7759 447.275 92.634 447.281 92.4854L447.311 92.0255C447.322 91.9581 447.318 91.8891 447.3 91.8234C447.281 91.7577 447.249 91.6969 447.204 91.6452C447.159 91.5936 447.104 91.5524 447.042 91.5246C446.979 91.4968 446.912 91.483 446.843 91.4843Z" fill="#48769E"/>
<path d="M445.023 91.6003C444.876 91.6219 444.741 91.6944 444.642 91.8051C444.542 91.9159 444.485 92.0579 444.48 92.2065L444.45 92.6658C444.438 92.7332 444.442 92.8022 444.461 92.8679C444.479 92.9337 444.512 92.9945 444.557 93.0462C444.601 93.0979 444.657 93.1392 444.719 93.1671C444.781 93.1949 444.849 93.2088 444.917 93.2076C445.065 93.1861 445.2 93.1136 445.299 93.0029C445.398 92.8921 445.455 92.75 445.46 92.6014L445.491 92.1421C445.502 92.0747 445.498 92.0057 445.48 91.9399C445.461 91.8742 445.428 91.8133 445.384 91.7616C445.339 91.7099 445.284 91.6687 445.221 91.6408C445.159 91.6129 445.091 91.5991 445.023 91.6003Z" fill="#48769E"/>
<path d="M443.203 91.7162C443.056 91.7378 442.921 91.8103 442.821 91.921C442.722 92.0318 442.665 92.1738 442.66 92.3224L442.629 92.7817C442.618 92.8491 442.622 92.9181 442.64 92.9838C442.659 93.0496 442.692 93.1104 442.736 93.1621C442.781 93.2138 442.836 93.2551 442.899 93.283C442.961 93.3108 443.029 93.3247 443.097 93.3235C443.244 93.3019 443.379 93.2294 443.478 93.1187C443.577 93.0079 443.635 92.8659 443.64 92.7173L443.67 92.258C443.681 92.1906 443.678 92.1216 443.659 92.0559C443.641 91.9901 443.608 91.9292 443.563 91.8775C443.519 91.8258 443.463 91.7846 443.401 91.7567C443.339 91.7288 443.271 91.715 443.203 91.7162Z" fill="#48769E"/>
<path d="M441.382 91.8322C441.235 91.8539 441.1 91.9264 441.001 92.0371C440.902 92.1479 440.845 92.2898 440.839 92.4384L440.809 92.8977C440.798 92.9651 440.802 93.0341 440.82 93.0998C440.839 93.1655 440.871 93.2264 440.916 93.2781C440.961 93.3298 441.016 93.371 441.078 93.3989C441.141 93.4268 441.208 93.4406 441.277 93.4394C441.424 93.4179 441.559 93.3454 441.658 93.2346C441.757 93.1239 441.814 92.9818 441.82 92.8333L441.85 92.3739C441.861 92.3066 441.857 92.2376 441.839 92.1718C441.82 92.1061 441.788 92.0452 441.743 91.9935C441.698 91.9418 441.643 91.9006 441.581 91.8727C441.518 91.8448 441.451 91.831 441.382 91.8322Z" fill="#48769E"/>
<path d="M439.562 91.9488C439.415 91.9704 439.28 92.0428 439.181 92.1536C439.082 92.2643 439.024 92.4064 439.019 92.5549L438.989 93.0143C438.978 93.0816 438.981 93.1506 439 93.2164C439.018 93.2821 439.051 93.343 439.096 93.3947C439.14 93.4464 439.196 93.4876 439.258 93.5155C439.32 93.5434 439.388 93.5572 439.456 93.556C439.604 93.5343 439.738 93.4617 439.838 93.3508C439.937 93.24 439.994 93.0979 439.999 92.9492L440.03 92.4899C440.041 92.4226 440.037 92.3536 440.019 92.2879C440 92.2221 439.967 92.1613 439.923 92.1096C439.878 92.058 439.823 92.0168 439.76 91.989C439.698 91.9612 439.63 91.9475 439.562 91.9488Z" fill="#48769E"/>
<path d="M437.742 92.0654C437.595 92.0869 437.46 92.1593 437.36 92.2701C437.261 92.3808 437.204 92.5229 437.199 92.6716L437.168 93.1309C437.157 93.1982 437.161 93.2672 437.179 93.333C437.198 93.3987 437.231 93.4596 437.275 93.5113C437.32 93.563 437.375 93.6042 437.438 93.6321C437.5 93.66 437.568 93.6738 437.636 93.6726C437.783 93.651 437.918 93.5786 438.017 93.4678C438.117 93.3571 438.174 93.215 438.179 93.0664L438.209 92.6071C438.221 92.5398 438.217 92.4708 438.198 92.405C438.18 92.3393 438.147 92.2784 438.102 92.2267C438.058 92.175 438.002 92.1338 437.94 92.1059C437.878 92.078 437.81 92.0642 437.742 92.0654Z" fill="#48769E"/>
<path d="M433.293 92.3488C433.146 92.3704 433.011 92.4429 432.912 92.5536C432.812 92.6643 432.755 92.8064 432.749 92.955L432.719 93.4143C432.708 93.4818 432.712 93.5508 432.73 93.6166C432.749 93.6824 432.782 93.7433 432.826 93.795C432.871 93.8467 432.927 93.888 432.989 93.9158C433.051 93.9436 433.119 93.9574 433.187 93.9561C433.335 93.9345 433.469 93.862 433.569 93.7513C433.668 93.6405 433.725 93.4985 433.731 93.3499L433.761 92.8906C433.772 92.8232 433.768 92.7542 433.75 92.6885C433.731 92.6227 433.698 92.5619 433.654 92.5102C433.609 92.4585 433.554 92.4172 433.491 92.3893C433.429 92.3615 433.361 92.3476 433.293 92.3488Z" fill="#48769E"/>
<path d="M431.472 92.4654C431.325 92.4869 431.19 92.5593 431.09 92.67C430.991 92.7808 430.934 92.9229 430.928 93.0716L430.898 93.5309C430.887 93.5983 430.89 93.6673 430.909 93.733C430.927 93.7988 430.96 93.8596 431.005 93.9113C431.049 93.963 431.105 94.0043 431.167 94.0322C431.23 94.06 431.297 94.0739 431.366 94.0727C431.513 94.0511 431.648 93.9787 431.747 93.8679C431.846 93.7572 431.904 93.6151 431.909 93.4665L431.94 93.0072C431.951 92.9398 431.947 92.8708 431.928 92.8051C431.91 92.7393 431.877 92.6784 431.833 92.6267C431.788 92.5751 431.733 92.5338 431.67 92.5059C431.608 92.478 431.54 92.4642 431.472 92.4654Z" fill="#48769E"/>
<path d="M429.652 92.5814C429.505 92.6029 429.37 92.6754 429.271 92.7861C429.172 92.8969 429.114 93.0389 429.109 93.1876L429.078 93.6469C429.067 93.7142 429.071 93.7832 429.09 93.8489C429.108 93.9146 429.141 93.9754 429.186 94.0271C429.23 94.0787 429.286 94.12 429.348 94.1479C429.41 94.1758 429.478 94.1897 429.546 94.1887C429.693 94.1671 429.828 94.0946 429.928 93.9839C430.027 93.8731 430.084 93.7311 430.09 93.5825L430.12 93.1231C430.131 93.0558 430.127 92.9868 430.109 92.921C430.091 92.8553 430.058 92.7944 430.013 92.7427C429.968 92.691 429.913 92.6498 429.851 92.6219C429.788 92.594 429.721 92.5802 429.652 92.5814Z" fill="#48769E"/>
<path d="M427.832 92.698C427.685 92.7196 427.55 92.792 427.451 92.9028C427.351 93.0135 427.294 93.1555 427.288 93.3042L427.258 93.7635C427.247 93.8309 427.251 93.8999 427.269 93.9656C427.288 94.0314 427.321 94.0922 427.365 94.1439C427.41 94.1956 427.465 94.2369 427.528 94.2648C427.59 94.2926 427.658 94.3065 427.726 94.3053C427.873 94.2837 428.008 94.2112 428.107 94.1005C428.207 93.9898 428.264 93.8477 428.27 93.6991L428.3 93.2398C428.311 93.1724 428.307 93.1034 428.289 93.0376C428.27 92.9719 428.238 92.911 428.193 92.8593C428.148 92.8076 428.093 92.7664 428.031 92.7385C427.968 92.7106 427.9 92.6968 427.832 92.698Z" fill="#48769E"/>
<path d="M426.015 92.8139C425.868 92.8355 425.733 92.9079 425.633 93.0187C425.534 93.1294 425.477 93.2714 425.471 93.4201L425.441 93.8801C425.43 93.9474 425.433 94.0164 425.452 94.0822C425.47 94.1479 425.503 94.2088 425.548 94.2605C425.592 94.3122 425.648 94.3534 425.71 94.3813C425.773 94.4092 425.84 94.423 425.909 94.4218C426.056 94.4004 426.191 94.3279 426.29 94.2172C426.389 94.1064 426.447 93.9643 426.452 93.8156L426.482 93.3563C426.494 93.2889 426.49 93.2198 426.472 93.154C426.453 93.0882 426.42 93.0272 426.376 92.9755C426.331 92.9237 426.276 92.8824 426.213 92.8545C426.151 92.8265 426.083 92.8127 426.015 92.8139Z" fill="#48769E"/>
<path d="M424.191 92.9306C424.044 92.9522 423.909 93.0246 423.81 93.1354C423.71 93.2461 423.653 93.3881 423.648 93.5367L423.618 93.9961C423.606 94.0634 423.61 94.1324 423.629 94.1982C423.647 94.2639 423.68 94.3248 423.725 94.3765C423.769 94.4282 423.825 94.4694 423.887 94.4973C423.949 94.5252 424.017 94.539 424.085 94.5378C424.232 94.5161 424.367 94.4436 424.467 94.3329C424.566 94.2222 424.623 94.0802 424.629 93.9316L424.659 93.4717C424.67 93.4043 424.666 93.3353 424.648 93.2696C424.629 93.2039 424.597 93.1431 424.552 93.0914C424.507 93.0398 424.452 92.9986 424.389 92.9708C424.327 92.943 424.259 92.9293 424.191 92.9306Z" fill="#48769E"/>
<path d="M417.921 93.3306C417.774 93.3523 417.64 93.4248 417.54 93.5355C417.441 93.6463 417.384 93.7882 417.378 93.9368L417.348 94.3967C417.337 94.4641 417.341 94.5331 417.359 94.5988C417.378 94.6646 417.41 94.7255 417.455 94.7772C417.5 94.8289 417.555 94.8701 417.617 94.898C417.68 94.9259 417.748 94.9397 417.816 94.9385C417.963 94.9169 418.098 94.8443 418.197 94.7335C418.297 94.6226 418.354 94.4804 418.359 94.3317L418.39 93.8723C418.401 93.8049 418.397 93.7359 418.379 93.6701C418.36 93.6043 418.327 93.5434 418.283 93.4917C418.238 93.44 418.182 93.3987 418.12 93.3709C418.058 93.3431 417.99 93.3293 417.921 93.3306Z" fill="#48769E"/>
<path d="M416.101 93.4472C415.954 93.4688 415.819 93.5412 415.72 93.652C415.621 93.7627 415.563 93.9047 415.558 94.0533L415.528 94.5126C415.517 94.58 415.52 94.649 415.539 94.7148C415.557 94.7805 415.59 94.8414 415.635 94.8931C415.679 94.9448 415.735 94.986 415.797 95.0139C415.859 95.0418 415.927 95.0556 415.995 95.0544C416.143 95.0327 416.277 94.9602 416.377 94.8495C416.476 94.7388 416.534 94.5968 416.539 94.4482L416.569 93.9889C416.58 93.9215 416.576 93.8525 416.558 93.7868C416.539 93.721 416.506 93.6602 416.462 93.6085C416.417 93.5568 416.362 93.5155 416.299 93.4877C416.237 93.4598 416.169 93.446 416.101 93.4472Z" fill="#48769E"/>
<path d="M414.278 93.5612C414.131 93.5828 413.996 93.6552 413.897 93.766C413.797 93.8767 413.74 94.0188 413.735 94.1674L413.705 94.6267C413.693 94.6941 413.697 94.7631 413.716 94.8288C413.734 94.8945 413.767 94.9554 413.811 95.0071C413.856 95.0588 413.912 95.1001 413.974 95.1279C414.036 95.1558 414.104 95.1697 414.172 95.1685C414.319 95.1469 414.454 95.0744 414.553 94.9636C414.653 94.8529 414.71 94.7109 414.715 94.5623L414.746 94.1029C414.757 94.0356 414.753 93.9666 414.734 93.9008C414.716 93.8351 414.683 93.7742 414.639 93.7225C414.594 93.6708 414.539 93.6296 414.476 93.6017C414.414 93.5738 414.346 93.56 414.278 93.5612Z" fill="#48769E"/>
<path d="M412.46 93.6791C412.313 93.7007 412.178 93.7731 412.079 93.8839C411.98 93.9946 411.923 94.1367 411.917 94.2853L411.887 94.7446C411.876 94.812 411.88 94.881 411.898 94.9467C411.917 95.0124 411.949 95.0733 411.994 95.125C412.039 95.1767 412.094 95.218 412.156 95.2459C412.219 95.2737 412.287 95.2876 412.355 95.2864C412.502 95.2648 412.637 95.1923 412.736 95.0815C412.835 94.9708 412.892 94.8288 412.898 94.6802L412.928 94.2209C412.939 94.1535 412.936 94.0845 412.917 94.0187C412.899 93.953 412.866 93.8921 412.821 93.8404C412.777 93.7887 412.721 93.7475 412.659 93.7196C412.596 93.6917 412.529 93.6779 412.46 93.6791Z" fill="#48769E"/>
<path d="M410.64 93.7957C410.493 93.8171 410.358 93.8895 410.258 94.0003C410.159 94.1111 410.102 94.2532 410.096 94.4019L410.066 94.8618C410.055 94.9292 410.058 94.9983 410.077 95.064C410.095 95.1298 410.128 95.1908 410.173 95.2425C410.217 95.2942 410.273 95.3355 410.335 95.3633C410.398 95.3911 410.465 95.4049 410.534 95.4036C410.681 95.3821 410.816 95.3097 410.915 95.1989C411.014 95.0881 411.072 94.946 411.077 94.7974L411.107 94.3374C411.118 94.2701 411.115 94.2011 411.096 94.1354C411.078 94.0696 411.045 94.0087 411.001 93.957C410.956 93.9053 410.901 93.864 410.838 93.8361C410.776 93.8083 410.708 93.7944 410.64 93.7957Z" fill="#48769E"/>
<path d="M408.415 93.9374C408.268 93.9589 408.133 94.0313 408.034 94.1421C407.934 94.2529 407.877 94.3949 407.872 94.5436L407.841 95.0029C407.83 95.0703 407.834 95.1393 407.853 95.2051C407.871 95.2708 407.904 95.3317 407.949 95.3833C407.993 95.435 408.049 95.4763 408.111 95.5041C408.173 95.532 408.241 95.5458 408.309 95.5447C408.457 95.5231 408.591 95.4506 408.691 95.3398C408.79 95.2291 408.847 95.0871 408.852 94.9385L408.883 94.4792C408.894 94.4118 408.89 94.3428 408.872 94.277C408.853 94.2113 408.82 94.1504 408.776 94.0987C408.731 94.047 408.676 94.0058 408.613 93.9779C408.551 93.95 408.483 93.9362 408.415 93.9374Z" fill="#48769E"/>
<path d="M406.595 94.054C406.448 94.0756 406.313 94.1481 406.214 94.2588C406.114 94.3695 406.057 94.5116 406.051 94.6602L406.022 95.1195C406.011 95.1869 406.014 95.2559 406.033 95.3217C406.051 95.3874 406.084 95.4483 406.129 95.5C406.173 95.5517 406.229 95.5929 406.291 95.6208C406.354 95.6487 406.421 95.6625 406.49 95.6613C406.637 95.6397 406.772 95.5672 406.871 95.4565C406.97 95.3457 407.027 95.2037 407.033 95.0551L407.063 94.5958C407.074 94.5284 407.07 94.4594 407.052 94.3937C407.033 94.3279 407.001 94.2671 406.956 94.2154C406.911 94.1637 406.856 94.1224 406.794 94.0945C406.731 94.0667 406.663 94.0528 406.595 94.054Z" fill="#48769E"/>
<path d="M404.775 94.17C404.627 94.1916 404.492 94.264 404.393 94.3747C404.294 94.4855 404.236 94.6275 404.231 94.7762L404.201 95.2355C404.189 95.3029 404.193 95.372 404.212 95.4378C404.23 95.5036 404.263 95.5645 404.308 95.6162C404.352 95.6679 404.408 95.7091 404.47 95.737C404.533 95.7648 404.601 95.7786 404.669 95.7773C404.816 95.7557 404.951 95.6832 405.05 95.5724C405.149 95.4617 405.207 95.3197 405.212 95.1711L405.242 94.7117C405.253 94.6444 405.25 94.5754 405.231 94.5096C405.213 94.4439 405.18 94.383 405.135 94.3313C405.091 94.2796 405.035 94.2384 404.973 94.2105C404.911 94.1826 404.843 94.1688 404.775 94.17Z" fill="#48769E"/>
<path d="M402.955 94.2885C402.808 94.3101 402.673 94.3826 402.574 94.4933C402.474 94.604 402.417 94.746 402.411 94.8947L402.381 95.3547C402.37 95.4221 402.374 95.4911 402.393 95.5568C402.411 95.6226 402.444 95.6834 402.489 95.7351C402.533 95.7868 402.589 95.828 402.651 95.8559C402.713 95.8838 402.781 95.8976 402.85 95.8964C402.997 95.8747 403.131 95.8022 403.231 95.6915C403.33 95.5808 403.387 95.4388 403.393 95.2902L403.423 94.8303C403.434 94.7629 403.43 94.6939 403.412 94.6282C403.393 94.5624 403.361 94.5015 403.316 94.4498C403.271 94.3982 403.216 94.3569 403.153 94.329C403.091 94.3011 403.023 94.2873 402.955 94.2885Z" fill="#48769E"/>
<path d="M401.133 94.4025C400.986 94.4241 400.851 94.4966 400.751 94.6073C400.652 94.718 400.595 94.8601 400.589 95.0087L400.559 95.468C400.548 95.5354 400.552 95.6045 400.57 95.6702C400.589 95.7359 400.622 95.7968 400.666 95.8485C400.711 95.9002 400.766 95.9414 400.829 95.9693C400.891 95.9971 400.959 96.011 401.027 96.0098C401.174 95.9881 401.309 95.9156 401.408 95.8049C401.507 95.6941 401.565 95.5522 401.57 95.4036L401.601 94.9443C401.612 94.8769 401.608 94.8079 401.589 94.7422C401.571 94.6764 401.538 94.6156 401.494 94.5639C401.449 94.5122 401.394 94.4709 401.331 94.443C401.269 94.4152 401.201 94.4013 401.133 94.4025Z" fill="#48769E"/>
<path d="M394.865 94.8026C394.718 94.8243 394.583 94.8968 394.484 95.0075C394.384 95.1182 394.327 95.2602 394.322 95.4087L394.291 95.8687C394.28 95.9361 394.284 96.0051 394.303 96.0708C394.321 96.1366 394.354 96.1974 394.398 96.2491C394.443 96.3008 394.498 96.3421 394.561 96.37C394.623 96.3978 394.691 96.4117 394.759 96.4105C394.906 96.3889 395.041 96.3164 395.141 96.2057C395.24 96.095 395.297 95.9529 395.303 95.8043L395.333 95.3443C395.344 95.2769 395.34 95.2079 395.322 95.1422C395.303 95.0764 395.27 95.0155 395.226 94.9639C395.181 94.9122 395.126 94.871 395.063 94.8431C395.001 94.8152 394.933 94.8014 394.865 94.8026Z" fill="#48769E"/>
<path d="M393.045 94.9192C392.898 94.9407 392.763 95.0132 392.664 95.124C392.565 95.2347 392.508 95.3767 392.502 95.5253L392.472 95.9847C392.461 96.052 392.465 96.121 392.483 96.1868C392.502 96.2525 392.534 96.3134 392.579 96.3651C392.624 96.4168 392.679 96.458 392.741 96.4859C392.804 96.5138 392.872 96.5276 392.94 96.5264C393.087 96.5049 393.222 96.4324 393.321 96.3217C393.421 96.2109 393.478 96.0689 393.484 95.9202L393.514 95.4609C393.525 95.3935 393.521 95.3244 393.503 95.2586C393.484 95.1929 393.451 95.1319 393.407 95.0802C393.362 95.0285 393.306 94.9873 393.244 94.9595C393.182 94.9316 393.114 94.9179 393.045 94.9192Z" fill="#48769E"/>
<path d="M391.023 95.048C390.875 95.0696 390.74 95.142 390.641 95.2528C390.542 95.3635 390.484 95.5055 390.479 95.6542L390.449 96.1135C390.437 96.1809 390.441 96.25 390.46 96.3158C390.478 96.3816 390.511 96.4425 390.556 96.4942C390.601 96.5459 390.656 96.5871 390.718 96.6149C390.781 96.6428 390.849 96.6565 390.917 96.6552C391.064 96.6337 391.199 96.5612 391.298 96.4504C391.397 96.3397 391.455 96.1977 391.46 96.0491L391.49 95.5898C391.502 95.5224 391.498 95.4534 391.479 95.3876C391.461 95.3219 391.428 95.261 391.383 95.2093C391.339 95.1576 391.283 95.1164 391.221 95.0885C391.159 95.0606 391.091 95.0468 391.023 95.048Z" fill="#48769E"/>
<path d="M389.202 95.164C389.055 95.1855 388.92 95.258 388.821 95.3687C388.722 95.4795 388.664 95.6215 388.659 95.7701L388.628 96.2295C388.617 96.2969 388.621 96.3659 388.639 96.4317C388.658 96.4975 388.691 96.5584 388.735 96.6101C388.78 96.6619 388.836 96.7031 388.898 96.7309C388.96 96.7588 389.028 96.7725 389.097 96.7712C389.244 96.7496 389.379 96.6772 389.478 96.5664C389.577 96.4557 389.634 96.3136 389.64 96.165L389.67 95.7057C389.681 95.6383 389.677 95.5693 389.659 95.5036C389.64 95.4379 389.608 95.377 389.563 95.3253C389.518 95.2736 389.463 95.2323 389.401 95.2045C389.338 95.1766 389.271 95.1628 389.202 95.164Z" fill="#48769E"/>
<path d="M447.14 95.5385L443.122 97.3931L398.865 110.38L390.322 110.305L417.83 97.2082L447.14 95.5385Z" fill="#94C3EB"/>
<path d="M447.204 98.3985L399.681 111.657L398.868 110.379L447.14 95.537L447.761 96.3674C447.928 96.7164 447.963 97.1137 447.861 97.4866C447.758 97.8596 447.525 98.1833 447.204 98.3985Z" fill="#48769E"/>
<path d="M399.682 111.657L396.968 107.087L387.975 106.392L390.8 111.602L399.682 111.657Z" fill="#48769E"/>
<path d="M201.774 122.694H152.878V341.761H201.774V122.694Z" fill="#F3D3A0"/>
<path d="M201.774 122.694H152.878V142.168H201.774V122.694Z" fill="#CF7765"/>
<path d="M208.56 334.186H146.093V341.761H208.56V334.186Z" fill="#CF7765"/>
<path d="M206.912 124.673H147.741V137.119H206.912V124.673Z" fill="#E59472"/>
<path d="M199.727 61.1672H154.926V70.2478H199.727V61.1672Z" fill="#F3D3A0"/>
<path d="M177.19 6.4274L165.696 33.204H188.957L177.19 6.4274Z" fill="#E59472"/>
<path d="M188.957 32.3962H165.696V50.0265H188.957V32.3962Z" fill="#F3D3A0"/>
<path d="M191.163 47.4935H163.489V50.0259H191.163V47.4935Z" fill="#CF7765"/>
<path d="M191.163 32.3962H163.489V34.7984H191.163V32.3962Z" fill="#E59472"/>
<path d="M196.601 61.1672H158.052L164.534 50.0226H190.119L196.601 61.1672Z" fill="#E59472"/>
<path d="M204.778 70.2478H149.234V124.673H204.778V70.2478Z" fill="#E59472"/>
<path d="M206.912 123.671H147.741V124.673H206.912V123.671Z" fill="#CF7765"/>
<path d="M198.9 76.4398H155.111V119.732H198.9V76.4398Z" fill="#F3D3A0"/>
<path d="M162.075 149.144H158.3V179.801H162.075V149.144Z" fill="#CF7765"/>
<path d="M170.644 149.144H166.869V179.801H170.644V149.144Z" fill="#CF7765"/>
<path d="M187.784 149.144H184.009V179.801H187.784V149.144Z" fill="#CF7765"/>
<path d="M196.352 149.144H192.577V179.801H196.352V149.144Z" fill="#CF7765"/>
<path d="M202.937 186.982H151.482V188.992H202.937V186.982Z" fill="#E59472"/>
<path d="M162.075 197.878H158.3V228.534H162.075V197.878Z" fill="#CF7765"/>
<path d="M170.644 197.878H166.869V228.534H170.644V197.878Z" fill="#CF7765"/>
<path d="M187.784 197.878H184.009V228.534H187.784V197.878Z" fill="#CF7765"/>
<path d="M196.352 197.878H192.577V228.534H196.352V197.878Z" fill="#CF7765"/>
<path d="M202.937 235.715H151.482V237.725H202.937V235.715Z" fill="#E59472"/>
<path d="M162.075 246.61H158.3V277.267H162.075V246.61Z" fill="#CF7765"/>
<path d="M170.644 246.61H166.869V277.267H170.644V246.61Z" fill="#CF7765"/>
<path d="M187.784 246.61H184.009V277.267H187.784V246.61Z" fill="#CF7765"/>
<path d="M196.352 246.61H192.577V277.267H196.352V246.61Z" fill="#CF7765"/>
<path d="M202.937 284.448H151.482V286.458H202.937V284.448Z" fill="#E59472"/>
<path d="M162.075 295.344H158.3V326H162.075V295.344Z" fill="#CF7765"/>
<path d="M170.644 295.344H166.869V326H170.644V295.344Z" fill="#CF7765"/>
<path d="M187.784 295.344H184.009V326H187.784V295.344Z" fill="#CF7765"/>
<path d="M196.352 295.344H192.577V326H196.352V295.344Z" fill="#CF7765"/>
<path d="M202.937 333.181H151.482V335.191H202.937V333.181Z" fill="#E59472"/>
<path d="M202.937 324.926H151.482V326.936H202.937V324.926Z" fill="#E59472"/>
<path d="M183.006 113.303C191.081 109.99 194.94 100.758 191.627 92.6833C188.313 84.6088 179.081 80.7493 171.006 84.0629C162.932 87.3764 159.072 96.6083 162.386 104.683C165.699 112.757 174.931 116.617 183.006 113.303Z" fill="#CF7765"/>
<path d="M189.698 100.921C190.936 93.9142 186.259 87.2304 179.251 85.9926C172.244 84.7548 165.56 89.4317 164.322 96.4388C163.085 103.446 167.762 110.13 174.769 111.368C181.776 112.605 188.46 107.928 189.698 100.921Z" fill="#E59472"/>
<path d="M178.666 94.2782C178.663 93.9849 178.58 93.6981 178.426 93.4484C178.272 93.1987 178.053 92.9956 177.793 92.861V91.0205L176.978 89.3327L176.221 91.0205V92.9003C175.974 93.0363 175.768 93.2361 175.624 93.4789C175.481 93.7216 175.405 93.9985 175.405 94.2804C175.405 94.5624 175.481 94.8392 175.624 95.082C175.768 95.3248 175.974 95.5246 176.221 95.6606V102.497H177.793V95.698C178.054 95.5635 178.273 95.3601 178.427 95.1098C178.581 94.8595 178.663 94.572 178.666 94.2782Z" fill="#F3D3A0"/>
<path d="M189.072 98.6716L187.905 98.1485H186.606C186.512 97.9777 186.374 97.8352 186.206 97.7359C186.038 97.6367 185.847 97.5844 185.652 97.5844C185.457 97.5844 185.265 97.6367 185.097 97.7359C184.929 97.8352 184.791 97.9777 184.697 98.1485H172.832V99.2353H184.67C184.762 99.4168 184.902 99.5693 185.075 99.6759C185.249 99.7825 185.448 99.8389 185.652 99.8389C185.855 99.8389 186.054 99.7825 186.228 99.6759C186.401 99.5693 186.541 99.4168 186.633 99.2353H187.906L189.072 98.6716Z" fill="#F3D3A0"/>
<path d="M178.648 98.6832C178.648 99.0079 178.552 99.3254 178.372 99.5955C178.191 99.8655 177.935 100.076 177.635 100.2C177.335 100.325 177.005 100.357 176.686 100.294C176.367 100.23 176.075 100.074 175.845 99.8443C175.616 99.6146 175.459 99.3221 175.396 99.0035C175.332 98.685 175.365 98.3548 175.489 98.0548C175.614 97.7547 175.824 97.4983 176.094 97.3179C176.364 97.1374 176.682 97.0411 177.006 97.0411C177.442 97.0411 177.86 97.2141 178.168 97.5221C178.475 97.83 178.648 98.2477 178.648 98.6832Z" fill="#F3D3A0"/>
<path d="M171.536 35.8111H168.82V45.1339H171.536V35.8111Z" fill="#CF7765"/>
<path d="M178.685 35.8111H175.97V45.1339H178.685V35.8111Z" fill="#CF7765"/>
<path d="M185.834 35.8111H183.118V45.1339H185.834V35.8111Z" fill="#CF7765"/>
<path d="M155.226 127.377H152.696V134.44H155.226V127.377Z" fill="#CF7765"/>
<path d="M164.675 127.377H162.146V134.44H164.675V127.377Z" fill="#CF7765"/>
<path d="M174.125 127.377H171.595V134.44H174.125V127.377Z" fill="#CF7765"/>
<path d="M183.574 127.377H181.044V134.44H183.574V127.377Z" fill="#CF7765"/>
<path d="M193.023 127.377H190.493V134.44H193.023V127.377Z" fill="#CF7765"/>
<path d="M202.472 127.377H199.942V134.44H202.472V127.377Z" fill="#CF7765"/>
<mask id="mask2_105_847" style="mask-type:luminance" maskUnits="userSpaceOnUse" x="199" y="173" width="170" height="170">
<path d="M343.791 317.448C376.717 284.524 376.717 231.142 343.791 198.217C310.866 165.293 257.483 165.293 224.557 198.217C191.632 231.142 191.632 284.524 224.557 317.448C257.483 350.373 310.866 350.373 343.791 317.448Z" fill="white"/>
</mask>
<g mask="url(#mask2_105_847)">
<path d="M343.791 317.448C376.717 284.524 376.717 231.142 343.791 198.217C310.866 165.293 257.483 165.293 224.557 198.217C191.632 231.142 191.632 284.524 224.557 317.448C257.483 350.373 310.866 350.373 343.791 317.448Z" fill="#73C8E0"/>
<path d="M343.791 317.448C376.717 284.524 376.717 231.142 343.791 198.217C310.866 165.293 257.483 165.293 224.557 198.217C191.632 231.142 191.632 284.524 224.557 317.448C257.483 350.373 310.866 350.373 343.791 317.448Z" fill="#789ACA"/>
<path d="M335.054 310.576L334.638 310.777L334.604 308.072L334.165 307.726L334.415 306.49L333.868 305.116L333.804 303.791L334.131 302.132L334.694 300.494L334.009 299.569L333.915 297.135L332.775 298.642L331.536 300.783L328.53 303.256L328.407 302.617L327.755 302.45L326.735 301.355L328.227 298.708L327.17 297.859L325.458 297.001L324.824 296.875L324.925 297.316L323.457 297.806L321.455 299.176L320.448 300.307L319.382 299.708L318.726 299.172L317.725 299.487L316.006 300.439L315.105 301.424L314.55 301.461L314.25 302.201L313.3 301.806L311.97 303.358L307.338 304.936L305.374 305.275L303.16 306.215L302.358 306.515L301.456 308.004L300.469 310.627L300.284 311.067L300.478 311.104L299.272 315.276L298.398 317.763L297.052 319.073L299.658 320.452L301.825 319.777L304.402 319.965L306.515 318.93L308.64 318.474L311.041 317.948L312.383 317.967L313.109 318.341L314.114 318.832L314.322 319.506L314.011 321.459L314.882 321.39L316.939 319.989L316.178 321.729L315.564 322.888L316.176 322.895L315.824 324.055L315.378 326.158L316.122 326.555L316.657 327.142L318.374 326.129L318.616 327.418L320.232 326.367L321.842 325.866L324.011 323.513L326.808 320.736L329.399 318.476L331.788 315.684L333.554 312.931L334.456 311.545L335.054 310.576Z" fill="#A7BCDB"/>
<path d="M341.042 295.294L340.615 294.328L340.26 293.477L340.657 293.043L340.809 292.263L339.936 291.49L339.868 290.996L339.105 290.287L337.473 289.508L335.953 288.765L334.257 287.974L333.122 288.392L331.346 289.394L330.646 288.299L330.559 286.867L329.107 286.665L327.759 287.199L328.587 288.217L329.922 288.583L328.421 288.868L328.685 290.146L329.956 290.047L331.687 291.022L332.622 293.345L331.544 294.302L333.363 294.495L334.388 295.209L335.911 295.179L336.153 294.683L336.843 294.19L338.433 294.272L339.105 295.813L340.482 296.279L341.466 296.403L341.507 295.53L341.042 295.294Z" fill="#A7BCDB"/>
<path d="M306.811 283.25L306.787 284.796L307.17 285.39L307.089 286.605L308.073 287.009L308.91 287.585L309.913 287.477L310.907 288.271L312.022 288.357L312.751 288.271L313.1 287.41L314.569 285.535L315.535 284.324L316.6 284.078L316.665 283.529L316.316 283.075L316.38 282.643L316.984 280.73L317.748 280.078L318.545 279.737L317.869 279.08L317.297 278.067L315.666 278.565L313.117 279.824L310.903 281.153L309.006 282.289L307.599 281.992L306.811 283.25Z" fill="#A7BCDB"/>
<path d="M302.878 286.213L302.672 285.681L303.516 286.15L303.161 284.905L302.581 284.914L301.887 285.057L301.568 284.007L301.053 283.616L301.439 282.843L300.518 281.28L299.273 279.983L297.656 278.226L296.095 276.223L294.022 275.753L294.98 277.713L296.434 280.244L296.674 281.505L297.24 282.703L297.868 285.48L299.325 287.629L301.294 288.808L301.877 288.481L302.187 287.603L302.878 286.213Z" fill="#A7BCDB"/>
<path d="M318.469 284.841L322.507 284.988L323.109 284.032L321.669 284.543L318.287 284.278L316.329 286.494L315.384 287.912L315.603 289.268L315.558 290.505L316.395 289.676L317.268 288.007L317.362 288.669L318.176 289.958L318.62 290.654L319.237 289.598L318.989 289.116L319.81 286.822L320.8 286.348L319.345 286.051L317.812 286.116L318.469 284.841Z" fill="#A7BCDB"/>
<path d="M307.277 292.397L308.816 292.934L310.139 292.869L308.201 291.552L309.053 291.235L307.158 290.508L305.493 290.517L303.894 289.625L301.645 289.103L302.808 291.036L304.901 291.638L307.277 292.397Z" fill="#A7BCDB"/>
<path d="M326.408 275.6L325.587 276.527L324.483 277.116L324.033 276.708L322.707 277.237L322.161 278.184L323.077 277.941L324.065 278.238L324.005 279.475L324.907 279.965L325.699 278.714L326.226 278.959L326.747 278.18L326.408 275.6Z" fill="#A7BCDB"/>
<path d="M347.083 292.079L345.935 292.828L344.969 292.912L343.661 293.132L344.16 293.98L346.229 293.321L347.083 292.079Z" fill="#A7BCDB"/>
<path d="M311.225 293.516L313.701 293.438L312.616 292.826L312.343 293.052L312.07 292.923L311.12 292.794L311.225 293.516Z" fill="#A7BCDB"/>
<path d="M316.917 293.81L317.493 293.417L317.069 293.337L315.281 293.072L314.592 293.695L316.917 293.81Z" fill="#A7BCDB"/>
<path d="M317.896 275.794L319.035 275.499L320.679 274.404L319.837 274.32L317.896 275.794Z" fill="#A7BCDB"/>
<path d="M323.374 177.575L325.094 178.717L325.495 178.024L322.896 176.813L323.374 177.575Z" fill="#A7BCDB"/>
<path d="M322.269 181.654L324.077 182.233L323.983 181.342L322.605 180.564L322.269 181.654Z" fill="#A7BCDB"/>
<path d="M316.762 175.47L318.678 177.789L320.501 177.633L321.987 177.477L321.484 176.046L319.883 175.165L320.282 176.569L319.391 174.889L318.501 175.263L317.045 173.91L316.762 175.47Z" fill="#A7BCDB"/>
<path d="M262.865 179.633L262.042 180.653L262.046 181.638L261.239 183.463L262.448 183.798L262.856 184.809L264.898 185.309L264.333 183.463L264.714 180.043L265.663 178.69L266.518 177.046L267.76 176.088L268.848 175.019L271.747 173.303L272.391 171.35L270.385 172.252L267.65 173.115L265.945 174.412L265.369 175.274L264.56 175.738L264.203 175.838L264.238 176.301L263.792 177.696L262.905 178.755L262.865 179.633Z" fill="#A7BCDB"/>
<path d="M299.805 265.339L300.46 267.073L300.745 269.727L300.03 272.472L299.814 273.352L299.383 274.086L299.746 274.949L300.799 277.55L300.843 279.886L301.625 281.54L303.31 282.984L303.738 281.695L303.51 280.622L303.876 279.106L302.513 277.011L301.716 276.238L301.598 275.006L301.276 274.019L300.814 273.258L302.137 270.716L302.757 269.695L303.16 270.126L303.608 270.693L304.381 271.127L305.498 273.084L306.175 273.615L306.657 274.157L307.252 275.123L309.7 273.995L312.337 270.403L311.724 267.771L310.289 265.748L310.049 263.648L312.107 262.261L313.63 262.244L314.092 263.045L315.123 263.026L315.227 262.726L317.025 262.458L318.39 261.779L319.11 261.954L323.591 260.252L324.618 259.445L325.168 258.637L326.498 256.877L327.107 253.534L327.534 251.817L328.164 251.563L327.402 250.345L326.892 248.513L325.96 246.911L328.436 245.171L329.188 244.402L327.538 243.61L326.208 244.025L325.194 243.183L324.197 241.853L325.684 241.265L328.164 239.456L328.287 240.551L328.041 241.293L327.758 242.086L328.917 241.873L330.708 241.486L331.524 244.215L332.816 244.697L332.739 245.84L332.986 246.409L332.922 247.586L333.335 248.945L334.44 248.698L335.159 248.785L336.029 247.383L335.026 243.983L334.463 241.671L335.881 240.464L336.594 238.633L338.181 237.833L338.556 238.23L339.741 238.338L341.53 236.551L342.997 234.574L343.829 232.509L344.496 230.589L344.309 225.758L345.734 230.086L346.214 232.303L346.365 233.368L346.425 234.608L347.42 234.528L347.92 234.148L346.877 232.076L347.779 230.614L346.765 227.793L345.949 226.236L345.691 224.779L344.65 222.54L343.93 222.154L344.202 222.982L343.926 223.304L343.973 223.894L344.163 225.122L343.604 223.657L341.557 221.772L340.69 221.815L339.967 221.801L339.479 221.369L339.205 221.764L338.876 220.704L337.892 220.372L338.763 218.375L339.168 217.325L340.053 215.985L340.684 214.057L342.478 213.434L343.573 213.756L344.586 213.714L345.939 213.947L346.183 213.488L346.909 213.64L348.182 214.296L348.207 214.854L350.051 215.085L350.567 214.55L349.975 213.8L350.288 212.726L351.271 210.983L352.347 211.305L352.821 211.774L353.995 213.214L354.417 212.055L354.902 211.705L354.608 210.15L355.003 210.563L355.062 211.277L355.473 212.199L355.787 213.165L355.435 213.791L354.951 216.204L354.851 217.568L354.146 218.181V218.817L353.848 219.984L354.556 222.776L356.106 225.862L357.507 228.825L358.988 228.477L358.804 227.163L359.441 226.787L359.448 224.825L360.414 224.406L359.53 222.84L360.289 221.907L359.387 220.74L359.098 219.809L358.356 218.848L358.171 219.041L357.862 218.726L357.549 217.451L357.294 215.3L358.107 215.339L358.404 215.037L358.972 215.719L359.434 215.048L361.597 216.121L362.084 216.228L362.132 214.829L363.028 212.968L363.982 212.82L365.07 213.271L362.957 210.691L363.026 210.699L361.918 209.299L360.765 208.332L361.513 207.371L360.186 205.779L360.694 205.861L361.353 206.319L361.667 206.054L363.066 207.159L364.844 208.026L363.037 205.476L363.356 205.222L362.767 204.373L361.221 202.984L359.733 202.312L360.422 203.407L357.523 200.746L354.251 198.556L350.365 195.762L347.02 194.291L348.566 197.171L347.914 196.43L347.136 195.865L345.963 194.157L345.722 194.516L345.702 194.94L345.348 194.847L343.325 194.05L340.722 193.248L339.555 191.463L337.324 189.947L334.441 189.637L332.971 188.183L332.263 187.851L331.513 187.317L330.482 185.845L328.887 185.344L323.911 183.436L324.579 184.089L324.133 184.182L323.949 184.745L324.607 185.058L325.169 186.573L324.064 186.218L322.721 185.873L321.586 186.106L320.233 185.166L320.445 187.312L318.147 185.288L316.974 184.374L317.586 184.529L316.794 183.322L316.343 182.278L315.127 181.127L314.049 180.743L312.052 180.07L312.232 181.436L310.388 181.36L309.853 180.899L309.131 180.886L308.402 179.758L306.228 179.372L305.39 179.464L304.586 178.994L303.76 179.239L302.863 178.475L302.811 179.159L300.935 179.335L301.441 178.775L301.978 177.435L302.66 173.99L301.843 172.809H301.382L298.344 171.263L297.731 171.33L297.804 171.76L297.16 171.534L296.407 170.416L295.811 170.153L295.659 169.418L293.34 169.643L293.234 171.142L293.401 172.232L292.646 172.167L292.469 172.524L291.751 173.213L291.056 172.939L290.94 172.468L290.319 172.709L289.016 172.935L288.84 173.697L286.968 174.314L285.749 175.129L284.954 176.825L286.126 177.792L286.172 178.425L286.031 178.167L285.293 178.197L283.038 178.58L281.792 179.257L282.217 180.803L283.521 181.816L284.046 182.46L284.69 182.906L285.012 184.63L284.299 185.088L284.339 184.747L284.488 183.55L283.027 182.648L281.03 181.203L280.037 180.895L279.966 181.711L280.006 181.633L280.453 182.447L278.991 182.275L279.475 183.399L280.685 184.104L279.031 183.689L278.439 181.896L277.907 180.676L277.888 181.836L277.295 182.444L277.401 184.263L277.673 186.665L278.436 188.086L280.12 188.091L278.896 188.63L278.684 189.725L278.529 191.03L277.761 192.362L275.383 192.822L274.963 192.357L276.158 192.647L277.728 190.193L277.212 188.285L276.81 184.8L276.325 183.837V182.506L275.496 180.307L273.81 180.487L273.05 182.987L272.273 183.856L272.342 184.895L272.505 185.796L272.467 187.162L273.031 187.355L273.683 188.159L273.731 189.274L271.936 187.946L269.693 186.642L267.447 186.099L266.48 185.188L266.075 185.952L267.588 187.581L267.312 188.539L266.604 188.835L266.557 188.299L265.771 188.293L264.849 188.602L263.501 188.889L262.426 189.169L261.551 188.584L259.274 189.615L257.982 190.379L257.347 191.241L255.741 190.894L256.657 189.462L256.101 188.764L254.782 188.722L254.994 189.611L254.509 191.11L254.729 191.913L253.839 192.486L252.834 192.48L251.781 193.174L250.923 193.995L251.046 194.867L249.384 194.809L248.52 194.551L248.124 195.354L248.749 196.471L247.05 195.647L247.337 193.288L246.275 191.969H252.266L251.975 189.749L250.974 189.176L249.75 188.04L247.331 187.62L247.095 186.912L245.895 187.105L246.603 186.227L244.841 185.749L244.684 184.976L243.704 185.84L243.42 185.398L242.861 185.308L241.231 186.154L241.359 185.927L240.709 186.586L238.319 187.911L238.415 187.287L238.113 187.922L237.54 188.029L236.702 188.42L236.544 189.28L235.495 189.45L235.917 188.75L234.358 190.32L235.865 190.132L234.91 190.591L234.247 191.428L232.556 193.053L231.175 194.909L229.36 196.455L228.254 197.544L227.37 197.776L227.258 198.193L226.189 198.678L225.107 199.546L223.901 200.434L223.22 201.63L223.104 202.906L222.518 203.523L222.717 203.978L222.377 204.979L223.523 205.301L225.931 203.889L226.499 203.88L226.228 205.169L226.198 206.677L225.957 207.684L226.279 208.486L227.149 208.124L228.374 207.678L229.815 206.412L229.576 206.391L231.476 203.869L232.604 202.62L232.03 201.241L232.902 199.244L234.416 197.898L236.937 195.661L239.683 194.027L238.266 196.175L236.8 197.458L235.87 198.209L235.308 200.196L235.303 201.782L235.374 201.721L236.056 202.386L238.448 201.742L240.667 202.377L238.972 203.1L236.988 203.001L235.442 204.125L234.356 204.995L235.966 205.141L235.225 206.312L234.844 205.974L234.013 205.672L233.236 206.395L232.497 207.904L232.187 208.756L231.28 209.115L230.561 209.643L230.11 209.286L229.198 209.141L226.603 210.3L226.013 210.163L225.977 209.455L224.057 210.107L223.309 209.15L224.727 209.375L225.951 207.684L224.868 208.094L224.684 208.662L224.285 208.704L224.305 207.834L224.787 207.512L224.723 206.797L225.137 205.776L223.479 206.607L222.357 209.244L219.406 211.121L216.84 213.195L213.803 215.134L212.935 215.549L212.59 215.35L211.776 216.257L209.405 217.329L210.457 217.894L210.488 218.563L210.497 219.773L208.118 221.804L204.695 221.523L202.774 223.851L201.599 225.594L201.013 227.264L201.516 228.193L202.218 228.288L202.407 228.965L203.964 228.707L206.284 228.411L207.884 227.27L208.512 226.742L208.637 225.87L212.069 223.596L213.019 222.141L214.571 222.205L215.442 222.321L216.08 221.901L217.856 221.158L218.658 222.465L219.654 224.321L221.844 227.325L218.32 228.37L219.175 229.276L220.088 229.814L220.57 228.976L222.103 228.104L222.884 227.187L223.013 226.157L223.994 226.455L224.134 225.587L222.88 224.525L222.657 224.042L221.931 223.72L221.359 222.099L220.95 220.602L222.022 219.948L221.986 220.539L222.308 220.816L222.755 220.98L223.012 221.568L224.358 222.915L225.472 224.092L225.259 225.878L226.011 228.655L225.858 229.106L226.22 230.005L227.46 230.338L228.104 229.405L228.834 228.326L228.203 226.522L228.573 226.587L229.133 226.735L229.432 226.468L230.753 225.942L231.106 227.553L231.508 228.351L230.713 228.795L230.946 229.316L231.193 229.515L231.055 229.754L231.386 230.386L232.743 231.353L233.242 231.804L234.575 231.454L236.142 232.191L238.015 231.943L238.644 231.795L239.587 231.97L239.022 233.652L237.412 236.179L235.726 237.467L233.355 236.856L230.778 236.845L228.287 235.979L226.378 235.001L224.295 234.318L222.868 235.552L221.515 236.62L219.805 235.359L219.012 234.864L218.695 233.937L216.488 233.331L215.082 232.338L216.172 230.792L216.081 230.077L216.611 229.261L215.86 228.853L214.379 229.008L212.446 228.903L206.561 229.716L203.696 229.992L201.957 230.039L197.538 233.393L196.145 235.354L193.388 236.633L188.749 240.572L188.014 241.693L188.284 242.262L187.987 242.887L186.832 245.478L185.897 246.417L185.905 247.617L186.068 248.937L186.605 249.154L187.385 250.776L188.186 253.253L190.553 255.619L193.287 256.031L196.181 256.811L199.531 256.431L202.32 257.204L202.682 258.428L204.199 259.041L206.293 260.299L205.954 261.523L205.198 263.041L204.94 265.079L206.58 267.585L207.285 270.859L207.084 271.742L207.375 273.572L205.612 275.37L204.642 278.285L205.34 279.69L205.817 281.133L206.585 284.63L207.404 287.666L208.813 290.958L208.969 293.02L211.743 294.536L216.523 295.76L219.666 294.794L220.902 293.869L222.087 293.297L222.872 291.956L223.089 291.001L225.61 290.615L225.848 287.635L226.208 286.686L228.309 285.866L231.659 284.971L232.883 282.418L233.179 280.807L233.085 279.64L232.937 276.766L232.71 275.385L233.547 274.315L234.524 273.322L236.04 272.485L239.156 270.525L242.326 269.186L247.199 264.899L249.053 262.382L248.137 261.259L244.445 261.228L241.486 260.655L240.945 259.57L241.087 258.657L239.071 255.746L237.987 252.944L237.273 251.607L236.911 249.806L236.32 246.972L235.741 244.395L235.197 241.306L236.085 241.139L236.913 241.916L237.843 245.001L238.689 246.053L239.044 247.595L239.608 250.278L240.759 252.971L241.44 254.502L241.211 255.924L241.881 258.822L243.373 258.729L244.695 258.633L248.356 257.989L251.268 257.409L252.153 256.757L254.011 256.659L255.106 255.995L256.194 255.727L257.27 255.089L258.043 254.439L260.002 252.68L260.63 251.64L259.485 249.88L257.764 247.784L257.843 246.753L256.268 247.629L254.874 248.484L253.447 248.332L252.466 247.869L252.647 246.219L251.374 245.961L251.075 244.436L250.218 242.755L251.7 241.28L253.095 243.996L254.061 244.566L254.936 245.515L256.349 246.127L258.213 245.915L258.634 247.143L259.627 247.778L263.386 249.056L266.58 249.424L268.771 250.362L269.173 251.442L270.087 252.14L271.853 253.359L270.719 253.532L271.313 255.002L272.791 255.839L274.173 254.861L274.191 256.759L274.078 259.865L274.552 262.834L275.084 265.949L275.869 268.862L277.022 270.829L278.843 269.725L279.787 269.017L280.247 267.922L281.174 265.933L281.931 263.403L283.986 262.783L284.808 262.045L285.991 261.416L288.384 259.972L289.437 259.527L290.165 258.489L292.851 258.326L295.223 257.94L295.384 259.274L295.964 260.522L296.752 261.511L296.61 262.079L297.022 262.517L297.403 263.723L296.937 265.216L299.805 265.339Z" fill="#A7BCDB"/>
<path d="M280.434 269.769L279.313 271.02L279.253 273.605L281.278 272.903L280.434 269.769Z" fill="#A7BCDB"/>
<path d="M241.765 283.94L239.446 285.79L237.766 286.273L235.863 286.337L234.787 289.702L233.397 291.076L233.333 293.043L236.296 294.951L237.663 293.568L239.201 291.334L240.607 289.138L241.356 287.773L242.093 286.562L241.765 283.94Z" fill="#A7BCDB"/>
<path d="M345.314 239.821L345.928 241.398L346.866 240.972L346.146 240.107L347.278 240.058L348.309 240.848L349.444 239.96L350.359 238.829L349.254 238.26L347.566 236.562L346.681 235.995L346.661 236.785L346.453 238.836L345.862 238.937L345.314 239.821Z" fill="#A7BCDB"/>
<path d="M210.499 209.648L209.146 210.385L208.566 211.758L207.33 213.047L208.664 213.219L210.305 212.487L211.395 210.757L212.218 209.373L210.499 209.648Z" fill="#A7BCDB"/>
<path d="M325.848 258.321L324.044 259.95L324.387 262.145L325.848 258.321Z" fill="#A7BCDB"/>
<path d="M337.154 254.055L338.184 252.264L338.269 251.294L337.775 250.671L338.893 250.24L340.172 250.305L338.786 250.885L339.443 251.821L340.121 251.366L340.766 251.356L341.236 249.921L341.287 250.919L342.808 250.846L344.781 250.323L345.204 250.358L345.803 249.688L346.591 250.006L346.88 248.133L347.184 246.143L347.635 245.653L347.813 244.718L346.021 242.027L345.426 245.56L344.486 246.904L343.527 247.254L343.306 246.824L343.017 246.63L342.756 247.117L341.77 248.694L340.625 248.571L339.62 248.556L337.66 249.681L337.284 250.099L336.382 250.851L336.221 251.935L336.326 252.379L337.154 254.055Z" fill="#A7BCDB"/>
<path d="M213.325 206.885L212.718 208.955L213.202 208.703L212.751 209.605L213.475 209.661L212.969 211.213L212.157 211.385L211.726 212.487L210.904 213.26L211.83 213.675L209.591 215.073L211.672 214.459L214.551 214.059L215.701 212.706L216.252 211.529L215.467 211.474L215.611 209.864L215.363 209.026L215.226 208.218L215.215 207.688L216.019 206.833L215.316 206.092L216.099 205.198L213.325 206.885Z" fill="#A7BCDB"/>
<path d="M313.998 263.142L311.364 263.516L312.331 264.479L313.998 263.142Z" fill="#A7BCDB"/>
<path d="M325.023 266.279L323.356 266.33L322.582 268.018L322.097 268.769V269.744L322.51 270.372L322.586 270.349L322.957 271.416L323.846 271.404L324.45 271.676L324.694 271.616L324.944 272.355L325.046 272.762L324.934 273.31L325.76 272.34L325.043 270.966L324.46 270.67L323.88 270.63L324.197 270.104L323.811 269.808L324.901 268.332L325.023 266.279Z" fill="#A7BCDB"/>
<path d="M325.108 274.714L324.772 274.685L324.396 275.462L325.108 274.714Z" fill="#A7BCDB"/>
<path d="M326.213 272.863L325.981 273.728L325.936 274.013L325.948 273.755L325.652 274.967L326.217 274.816L326.876 274.092L326.213 272.863Z" fill="#A7BCDB"/>
<g style="mix-blend-mode:multiply">
<path d="M365.413 190.985C363.304 187.998 359.758 186.43 356.363 185.068C331.119 174.939 304.556 168.475 277.481 165.871C264.645 164.64 251.615 164.29 238.926 166.579C226.237 168.869 213.836 173.939 204.225 182.535C191.281 194.112 184.348 211.227 181.844 228.412C179.341 245.598 180.853 263.084 182.371 280.384C182.794 285.212 204.654 315.26 204.654 315.26C219.543 314.856 233.493 277.783 233.33 272.164C232.966 259.605 231.005 245.897 232.269 232.361C233.686 217.158 243.665 210.432 252.68 206.119C265.387 200.038 282.616 205.002 287.236 206.362C305.227 211.655 339.955 221.794 352.032 214.583C356.496 211.918 361.518 209.816 364.529 205.58C367.541 201.343 368.413 195.233 365.413 190.985Z" fill="#BAC7DF"/>
</g>
</g>
<path d="M217.82 232.562C217.82 232.562 220.585 241.944 222.441 249.637C223.283 253.128 222.008 256.878 223.589 258.183C225.65 259.886 232.5 258.469 234.118 256.342C235.615 254.372 233.624 248.919 233.155 246.485C232.124 241.155 231.448 224.84 231.448 224.84L217.82 232.562Z" fill="#ECAB8F"/>
<path d="M286.918 154.489C286.918 154.489 264.939 158.146 253.067 161.07C238.904 164.557 226.89 167.325 220.195 171.271C210.467 177.004 212.1 189.077 213.735 207.668C215.498 227.731 219.618 248.317 219.618 248.317C222.224 248.17 224.817 247.852 227.38 247.364C231.697 246.462 233.658 244.781 233.658 244.781C233.658 244.781 234.317 217.654 234.349 212.389C234.374 205.407 235.016 198.44 236.269 191.571C236.269 191.571 278.618 183.068 282.021 182.082C285.424 181.096 286.918 154.489 286.918 154.489Z" fill="#4E514E"/>
<path d="M233.683 248.613C233.683 248.613 234.617 247.905 236.578 250.942C238.54 253.979 240.959 257.899 240.719 259.683C240.479 261.467 229.308 273.57 225.005 277.113C220.702 280.656 214.345 280.935 214.112 280.889C211.193 280.315 210.16 278.554 210.276 276.336C210.393 274.118 213.653 269.926 215.206 266.68C216.76 263.435 219.51 256.108 219.78 254.002C220.05 251.896 221.198 251.399 222.76 251.449C225.337 251.533 226.543 253.167 228.107 253.431C229.945 253.741 231.824 252.58 232.308 252.254C233.945 251.152 233.683 248.613 233.683 248.613Z" fill="#3E4450"/>
<path d="M232.294 268C229.804 271.058 224.91 275.928 220.273 278.361C217.407 279.865 211.397 279.85 210.46 278.067C210.772 279.082 211.221 280.049 211.793 280.943C212.357 282.457 217.58 283.088 221.094 281.414C226.345 278.912 230.708 274.543 233.849 270.806C238.217 265.606 240.582 260.722 240.721 259.683C240.826 258.901 240.429 257.511 239.784 255.94C238.964 259.834 236.235 263.158 232.294 268Z" fill="#FBEFE5"/>
<path d="M318.105 157.808C318.105 157.808 319.126 162.119 324.504 168.184C329.929 174.3 339.721 182.183 341.898 185.296C351.033 198.366 346.381 205.311 346.381 205.311C346.381 205.311 318.696 202.294 305.387 197.726C292.079 193.159 279.242 184.884 279.242 184.884L279.924 158.255L318.105 157.808Z" fill="#4E514E"/>
<path d="M293.071 199.307C293.071 199.307 279.227 193.119 271.139 190.701C267.729 189.682 264.175 189.127 263.246 187.433C262.034 185.223 264.727 179.773 267.065 178.967C269.232 178.221 272.183 181.241 275.3 181.886C281.771 183.227 296.119 184.816 296.119 184.816L293.071 199.307Z" fill="#ECAB8F"/>
<path d="M274.347 181.491C274.347 181.491 275.056 180.718 272.072 178.833C269.089 176.948 265.244 174.622 263.487 174.731C261.73 174.841 249.723 183.926 246.195 187.486C242.667 191.047 241.545 198.023 241.479 198.219C241.414 198.416 244.67 200.371 246.857 200.392C249.044 200.413 253.198 197.799 256.407 196.622C259.617 195.445 266.858 193.451 268.934 193.33C271.01 193.209 271.511 192.235 271.471 190.87C271.406 188.615 269.804 187.471 269.555 186.089C269.263 184.467 270.42 182.89 270.746 182.486C271.845 181.122 274.347 181.491 274.347 181.491Z" fill="#3E4450"/>
<path d="M255.232 181.627C252.204 183.632 247.366 187.636 244.936 191.548C243.433 193.968 243.405 199.218 245.157 200.134C243.992 199.725 242.871 199.204 241.807 198.578C240.319 197.998 238.521 194.127 241.09 190.087C243.837 185.764 248.248 182.414 251.953 179.881C257.107 176.354 261.938 174.56 262.964 174.497C263.737 174.448 265.626 175.105 267.17 175.755C263.326 176.256 260.03 178.455 255.232 181.627Z" fill="#FBEFE5"/>
<path d="M280.974 182.127C280.974 182.127 275.606 185.876 276.532 197.201C276.532 197.201 290.162 202.848 301.747 205.576C313.333 208.303 333.27 212.608 339.305 211.322C345.34 210.036 347.107 203.909 347.107 203.909C347.107 203.909 325.281 188.516 320.362 186.515C315.442 184.515 280.974 182.127 280.974 182.127Z" fill="#4E514E"/>
<path d="M335.078 192.561C335.078 192.561 325.28 188.519 320.36 186.519C315.441 184.518 280.974 182.127 280.974 182.127C280.974 182.127 275.606 185.876 276.532 197.201" stroke="#444644" stroke-width="2.855" stroke-miterlimit="10"/>
<path d="M236.542 184.779C236.542 184.779 235.02 200.273 234.352 212.393" stroke="#444644" stroke-width="2.855" stroke-miterlimit="10"/>
<path d="M285.921 49.908C285.637 51.8264 287.877 65.922 289.741 68.7829C290.527 69.9921 300.825 72.3904 300.825 72.3904C300.825 72.3904 294.519 98.66 289.293 99.9619C284.068 101.264 267.333 79.8205 267.333 79.8205C267.333 79.8205 273.706 74.9111 274.074 73.9835C275.077 71.4595 272.34 56.4105 272.34 56.4105L285.921 49.908Z" fill="#E8B3A0"/>
<path d="M271.908 75.5502C273.911 75.9544 275.957 76.1102 277.998 76.014C278.354 75.8516 278.712 75.7093 279.067 75.5341C283.328 73.4372 286.282 70.4984 288.964 67.0307C287.313 62.2888 285.675 51.5668 285.92 49.9099L272.342 56.4163C272.342 56.4163 275.079 71.4653 274.077 73.9893C273.953 74.2972 273.048 74.8963 271.908 75.5502Z" fill="#D49684"/>
<path d="M258.464 84.4703C258.464 84.4703 253.914 87.7557 252.657 100.078C251.836 108.116 252.826 131.587 252.137 133.043C250.794 135.883 240.863 152.664 240.863 152.664C240.863 152.664 250.024 154.564 252.568 160.197C252.568 160.197 263.032 147.458 267.095 141.122C271.158 134.786 268.414 113.946 266.842 103.277C265.271 92.6078 258.464 84.4703 258.464 84.4703Z" fill="#FF1D00"/>
<path d="M299.01 71.5935C296.15 71.0099 294.536 70.5197 294.536 70.5197C292.41 73.4185 282.802 76.559 279.752 76.7271C272.124 77.1471 271.907 75.5502 271.907 75.5502C270.727 76.0906 270.332 77.4183 269.166 78.1218C270.224 80.0969 271.544 82.0598 273.586 82.999C275.828 84.0297 280.26 84.5154 282.741 84.1637C287.007 83.5607 294.493 82.4978 299.01 71.5935Z" fill="#2A2D33"/>
<path d="M321.359 123.875C321.728 119.757 312.044 75.6938 311.327 75.1585C310.004 74.1716 301.066 72.0322 295.647 70.7993C293.275 76.693 289.522 80.5504 282.817 81.3151C278.638 81.7912 275.88 78.6211 273.031 75.0857C268.167 77.2992 258.465 84.4704 258.465 84.4704C258.465 84.4704 261.632 117.116 262.206 129.302C262.478 135.062 261.029 152.222 261.047 159.905C270.624 164.56 288.667 161.675 290.862 161.781C293.36 161.901 304.504 161.595 311.588 163.155C319.893 164.983 324.105 168.676 324.504 168.184C326.077 166.243 320.771 130.474 321.359 123.875Z" fill="#FF1D00"/>
<path d="M259.211 97.5945C259.211 97.5945 264.023 130.28 261.311 151.607" stroke="#C1516A" stroke-width="2.855" stroke-miterlimit="10"/>
<path d="M296.429 161.497L275.041 165.711L229.707 164.724L251.095 160.51L296.429 161.497Z" fill="#D1D1D1"/>
<path d="M275.042 165.711H225.125V168.644H275.042V165.711Z" fill="#D1D1D1"/>
<path d="M296.43 161.497L275.042 165.711V168.644L296.43 164.43V161.497Z" fill="#B5B7B7"/>
<path d="M284.442 152.048C283.095 151.983 279.71 152.821 277.732 153.4C275.754 153.98 275.026 154.088 274.124 154.346C273.222 154.605 273.097 155.263 273.917 155.512C274.738 155.76 275.855 156.124 278.6 155.278C281.345 154.431 285.082 153.673 285.082 153.673C285.082 153.673 285.164 152.082 284.442 152.048Z" fill="#E7B2A1"/>
<path d="M272.274 162.617C272.211 162.605 272.148 162.588 272.087 162.566L272.274 162.617Z" fill="#E7B2A1"/>
<path d="M270.977 160.562C270.957 160.159 272.123 158.688 272.904 157.818C273.901 156.705 275.104 155.796 276.447 155.141C277.8 154.427 281.772 152.484 282.781 152.258C284.791 151.807 286.679 152.198 287.934 152.234C289.12 152.267 291.804 153.075 293.192 152.814C295.098 152.458 300.048 145.19 300.048 145.19L304.893 153.927C304.893 153.927 302.012 155.405 299.682 156.863C297.131 158.539 294.337 159.813 291.399 160.641C288.673 161.302 287.38 160.373 286.181 160.494C284.754 160.719 283.379 161.199 282.122 161.912C281.163 162.498 279.791 163.758 279.015 163.903C278.238 164.048 277.843 163.154 277.843 163.154C277.23 163.446 276.645 163.794 276.095 164.193C275.414 164.727 274.213 164.289 274.125 163.542C274.125 163.542 273.556 164.31 272.978 164.214C272.401 164.118 272.045 163.574 272.273 162.616C272.273 162.616 273.69 160.726 274.375 159.951C275.083 159.207 275.833 158.504 276.62 157.844C277.347 157.427 278.098 157.052 278.869 156.723C278.869 156.723 277.594 157.097 276.679 157.41C276.218 157.555 275.802 157.815 275.468 158.164C274.63 158.937 274.027 159.525 272.996 160.426C272.462 160.895 271.017 161.365 270.977 160.562Z" fill="#E7B2A1"/>
<path d="M296.117 149.748C297.912 150.6 299.472 151.876 300.662 153.467C301.852 155.058 302.636 156.915 302.946 158.877C302.946 158.877 320.051 147.861 327.983 140.493C332.143 136.628 335.126 132.502 334.383 124.6C333.867 119.132 328.827 92.2613 327.096 87.8485C325.365 83.4358 322.837 78.8987 316.994 76.4785C313.186 74.9585 309.208 73.9078 305.146 73.3496C305.146 73.3496 306.569 89.4113 307.777 94.4302C308.984 99.4492 317.279 126.189 317.279 126.189L296.117 149.748Z" fill="#FF1D00"/>
<path d="M325.861 128.937C325.861 128.937 321.654 125.218 317.279 126.186" stroke="#C1516A" stroke-width="2.855" stroke-miterlimit="10"/>
<path d="M307.777 94.4302C308.984 99.4485 317.279 126.189 317.279 126.189L296.117 149.748C298.63 150.006 303.107 155.254 302.946 158.877C302.946 158.877 320.691 148.496 327.983 140.493" stroke="#C1516A" stroke-width="2.855" stroke-miterlimit="10"/>
<path d="M270.598 74.9376C270.598 74.9376 275.306 77.3745 279.753 76.7278C279.047 78.749 279.084 80.9554 279.856 82.952C279.856 82.952 275.27 81.7061 272.756 79.2157C270.243 76.7252 270.598 74.9376 270.598 74.9376Z" fill="white"/>
<path d="M294.222 69.7711C294.222 69.7711 282.299 76.5461 279.753 76.7284C279.753 76.7284 284.198 78.9722 284.126 82.6492C284.126 82.6492 290.413 79.6769 292.882 77.1414C299.684 70.1544 294.222 69.7711 294.222 69.7711Z" fill="white"/>
<path d="M260.065 50.9413C260 49.0003 260.237 43.3572 260.237 43.3572L258.777 42.9958C256.438 42.416 255.854 45.2215 255.956 48.0044C256.035 50.1438 260.703 57.8645 260.703 57.8645C260.885 55.9345 260.097 51.8689 260.065 50.9413Z" fill="#2A2D33"/>
<path d="M285.074 66.1926C283.751 68.1381 281.66 72.4639 276.356 74.8976C274.327 75.8285 272.331 75.8414 270.794 75.0348C267.413 73.0737 264.618 70.2458 262.696 66.8433C261.743 65.0827 260.442 60.1971 260.192 57.7601C259.973 55.6401 258.839 52.3527 258.807 50.9928C258.707 46.468 259.358 41.6662 262.767 39.9719C272.044 35.3569 287.548 41.5708 287.878 44.7061C288.188 47.6604 287.797 52.9518 288.033 56.8473C288.207 59.779 287.31 62.9059 285.074 66.1926Z" fill="#E7B2A1"/>
<path d="M280.212 41.1837C281.781 43.2966 283.27 42.8541 285.337 44.0903C287.404 45.3265 289.009 55.6078 289.009 55.6078C290.315 53.5567 291.168 51.2507 291.513 48.8438C291.641 47.8086 292.563 45.1596 292.36 42.4489C291.946 36.8894 290.387 35.6255 288.408 34.8531C286.34 34.0453 284.133 35.1321 284.133 35.1321L280.212 41.1837Z" fill="#2A2D33"/>
<path d="M287.579 52.1697C288.081 51.3864 289.439 49.7618 290.153 50.6772C290.867 51.5926 290.95 56.7004 289.698 59.0214C288.525 61.1949 286.677 60.7652 286.677 60.7652L286.845 53.9368L287.579 52.1697Z" fill="#E7B2A1"/>
<path d="M283.524 41.9741C283.524 41.9741 284.484 46.8056 284.684 48.474C285.439 54.715 287.227 56.9194 287.227 56.9194L288.251 51.2885L289.063 46.5215L283.524 41.9741Z" fill="#2A2D33"/>
<path d="M288.136 53.4253C288.543 52.008 289.63 51.7806 289.793 52.7392C289.957 53.6978 289.581 53.9632 289.581 53.9632C289.359 54.0445 289.16 54.1777 289.001 54.3516C288.842 54.5256 288.726 54.7352 288.665 54.963C288.241 56.2055 288.054 57.5167 288.115 58.8281C288.115 58.8281 287.148 56.8646 288.136 53.4253Z" fill="#D49684"/>
<path d="M275.952 39.2652C276.223 43.0795 277.542 44.1057 279.469 45.1274C281.358 46.1298 283.58 48.6209 285.256 51.8148C286.291 53.7861 287.64 40.7733 287.64 40.7733L284.244 36.7046L278.299 36.5422L275.952 39.2652Z" fill="#2A2D33"/>
<path d="M283.591 31.5529C282.713 30.7155 278.433 28.2398 270.642 30.2845C264.965 31.7745 260.891 34.7166 259.269 36.8727C256.434 40.6438 255.962 44.1875 255.958 48.0037C255.958 48.0037 258.599 48.3072 258.605 48.3026C262.051 48.3763 265.479 47.789 268.704 46.5723C271.422 45.5004 277.01 39.8302 277.336 40.0975L284.602 38.7518L286.205 36.845C285.927 34.8451 285.01 32.9887 283.591 31.5529Z" fill="#2A2D33"/>
<path d="M271.604 50.6308C271.608 49.9871 271.842 49.3661 272.264 48.8799C273.502 48.6051 274.783 48.5845 276.029 48.8192C277.275 49.054 278.461 49.5392 279.514 50.2456C279.205 50.3086 278.892 50.3549 278.577 50.3841C277.899 50.3995 274.046 49.6117 271.604 50.6308Z" fill="#2A2D33"/>
<path d="M266.749 51.5951C266.729 50.9594 266.488 50.3507 266.068 49.8732C266.068 49.8732 263.942 49.756 260.85 52.4055C260.85 52.4055 261.096 52.8372 261.739 52.5698C262.381 52.3025 264.838 50.7848 266.749 51.5951Z" fill="#2A2D33"/>
<path d="M270.192 55.7979C269.84 56.5258 269.537 57.2718 269.242 58.021C268.947 58.7702 268.677 59.5278 268.413 60.2866L268.224 60.8587L268.13 61.1447C268.106 61.2626 268.083 61.3817 268.065 61.4996C268.07 61.6238 268.086 61.7472 268.115 61.8681C268.153 61.9832 268.21 62.091 268.285 62.1863C268.418 62.3601 268.596 62.4949 268.8 62.5767C269.396 62.8673 270.07 62.9557 270.721 62.8286C270.721 62.8286 271.178 62.6231 270.814 62.5303C270.196 62.486 269.584 62.3862 268.983 62.2321C268.844 62.1692 268.725 62.0667 268.643 61.9374C268.561 61.808 268.518 61.6574 268.521 61.5041C268.542 61.4262 268.556 61.3495 268.571 61.2709L268.67 60.9875L268.868 60.4206C269.12 59.6611 269.372 58.9009 269.588 58.1305C269.804 57.36 270.028 56.5883 270.192 55.7979Z" fill="#D49684"/>
<path d="M275.595 54.9405C275.677 55.8868 275.262 56.6946 274.671 56.7442C274.08 56.7938 273.535 56.0685 273.454 55.1221C273.372 54.1758 273.787 53.368 274.378 53.3184C274.969 53.2688 275.514 53.9941 275.595 54.9405Z" fill="#2A2D33"/>
<path d="M265.764 56.5542C265.845 57.5005 265.431 58.309 264.839 58.3579C264.247 58.4069 263.703 57.6828 263.621 56.7358C263.54 55.7889 263.955 54.981 264.546 54.9321C265.137 54.8831 265.681 55.6079 265.764 56.5542Z" fill="#2A2D33"/>
<path d="M268.404 66.2525C270.871 67.6407 274.707 65.5323 275.759 64.7496C275.759 64.7496 274.652 67.6317 272.387 68.2418C269.928 68.9027 268.404 66.2525 268.404 66.2525Z" fill="#2A2D33"/>
<path d="M278.365 166.602H267.127L239.812 133.754H248.355L278.365 166.602Z" fill="#B5B7B7"/>
<path d="M275.139 166.602H225.573L198.259 133.754H247.824L275.139 166.602Z" fill="#D1D1D1"/>
<path d="M376.875 237.766H387.569C388.34 237.766 389.08 238.072 389.625 238.617C390.17 239.162 390.476 239.901 390.476 240.672V243.829H373.969V240.672C373.969 239.901 374.275 239.162 374.82 238.617C375.365 238.072 376.105 237.766 376.875 237.766Z" fill="#C1CBD3"/>
<path d="M440.087 237.766H450.781C451.552 237.766 452.291 238.072 452.837 238.617C453.382 239.162 453.688 239.901 453.688 240.672V243.829H437.181V240.672C437.181 239.901 437.487 239.162 438.032 238.617C438.577 238.072 439.316 237.766 440.087 237.766Z" fill="#C1CBD3"/>
<path d="M380.187 341.763H375.723C375.273 341.763 374.834 341.619 374.471 341.351C374.109 341.083 373.841 340.706 373.709 340.275L372.331 335.799H383.581L382.203 340.275C382.07 340.706 381.803 341.083 381.44 341.351C381.077 341.619 380.638 341.763 380.187 341.763Z" fill="#70531A"/>
<path d="M453.742 341.763H449.278C448.827 341.763 448.388 341.618 448.026 341.351C447.663 341.083 447.396 340.706 447.263 340.275L445.885 335.799H457.135L455.757 340.275C455.624 340.706 455.357 341.083 454.994 341.351C454.632 341.619 454.193 341.763 453.742 341.763Z" fill="#70531A"/>
<path d="M455.617 240.498H372.631C363.119 240.498 355.407 248.209 355.407 257.721V321.555C355.407 331.067 363.119 338.779 372.631 338.779H455.617C465.129 338.779 472.841 331.067 472.841 321.555V257.721C472.841 248.209 465.129 240.498 455.617 240.498Z" fill="#E8B452"/>
<path d="M356.484 332.574C357.301 334.402 358.624 335.958 360.297 337.058C361.97 338.157 363.923 338.754 365.925 338.778H462.324C464.326 338.754 466.279 338.157 467.952 337.057C469.626 335.958 470.949 334.402 471.765 332.574H356.484Z" fill="#D4A348"/>
<path d="M424.91 231.702H403.338C402.489 231.702 401.666 231.998 401.011 232.538C400.356 233.079 399.91 233.831 399.75 234.665L397.991 243.828H430.256L428.497 234.665C428.337 233.831 427.891 233.079 427.236 232.538C426.581 231.998 425.759 231.702 424.91 231.702Z" stroke="#48769E" stroke-width="7.289" stroke-miterlimit="10"/>
<path d="M370.346 256.27C370.346 255.608 369.809 255.072 369.147 255.072C368.486 255.072 367.949 255.608 367.949 256.27V319.93C367.949 320.592 368.486 321.128 369.147 321.128C369.809 321.128 370.346 320.592 370.346 319.93V256.27Z" fill="#FFD68A"/>
<path d="M371.113 256.27C371.113 255.608 370.577 255.072 369.915 255.072C369.253 255.072 368.717 255.608 368.717 256.27V319.93C368.717 320.592 369.253 321.128 369.915 321.128C370.577 321.128 371.113 320.592 371.113 319.93V256.27Z" fill="#D4A348"/>
<path d="M385.21 256.27C385.21 255.608 384.673 255.072 384.012 255.072C383.35 255.072 382.813 255.608 382.813 256.27V319.93C382.813 320.592 383.35 321.128 384.012 321.128C384.673 321.128 385.21 320.592 385.21 319.93V256.27Z" fill="#FFD68A"/>
<path d="M385.978 256.27C385.978 255.608 385.441 255.072 384.779 255.072C384.118 255.072 383.581 255.608 383.581 256.27V319.93C383.581 320.592 384.118 321.128 384.779 321.128C385.441 321.128 385.978 320.592 385.978 319.93V256.27Z" fill="#D4A348"/>
<path d="M400.074 256.27C400.074 255.608 399.538 255.072 398.876 255.072C398.214 255.072 397.678 255.608 397.678 256.27V319.93C397.678 320.592 398.214 321.128 398.876 321.128C399.538 321.128 400.074 320.592 400.074 319.93V256.27Z" fill="#FFD68A"/>
<path d="M400.842 256.27C400.842 255.608 400.305 255.072 399.644 255.072C398.982 255.072 398.445 255.608 398.445 256.27V319.93C398.445 320.592 398.982 321.128 399.644 321.128C400.305 321.128 400.842 320.592 400.842 319.93V256.27Z" fill="#D4A348"/>
<path d="M414.937 256.27C414.937 255.608 414.401 255.072 413.739 255.072C413.077 255.072 412.541 255.608 412.541 256.27V319.93C412.541 320.592 413.077 321.128 413.739 321.128C414.401 321.128 414.937 320.592 414.937 319.93V256.27Z" fill="#FFD68A"/>
<path d="M415.705 256.27C415.705 255.608 415.169 255.072 414.507 255.072C413.845 255.072 413.309 255.608 413.309 256.27V319.93C413.309 320.592 413.845 321.128 414.507 321.128C415.169 321.128 415.705 320.592 415.705 319.93V256.27Z" fill="#D4A348"/>
<path d="M429.803 256.27C429.803 255.608 429.266 255.072 428.604 255.072C427.943 255.072 427.406 255.608 427.406 256.27V319.93C427.406 320.592 427.943 321.128 428.604 321.128C429.266 321.128 429.803 320.592 429.803 319.93V256.27Z" fill="#FFD68A"/>
<path d="M430.57 256.27C430.57 255.608 430.034 255.072 429.372 255.072C428.71 255.072 428.174 255.608 428.174 256.27V319.93C428.174 320.592 428.71 321.128 429.372 321.128C430.034 321.128 430.57 320.592 430.57 319.93V256.27Z" fill="#D4A348"/>
<path d="M444.666 256.27C444.666 255.608 444.13 255.072 443.468 255.072C442.806 255.072 442.27 255.608 442.27 256.27V319.93C442.27 320.592 442.806 321.128 443.468 321.128C444.13 321.128 444.666 320.592 444.666 319.93V256.27Z" fill="#FFD68A"/>
<path d="M445.434 256.27C445.434 255.608 444.897 255.072 444.235 255.072C443.574 255.072 443.037 255.608 443.037 256.27V319.93C443.037 320.592 443.574 321.128 444.235 321.128C444.897 321.128 445.434 320.592 445.434 319.93V256.27Z" fill="#D4A348"/>
<path d="M459.531 256.27C459.531 255.608 458.995 255.072 458.333 255.072C457.671 255.072 457.135 255.608 457.135 256.27V319.93C457.135 320.592 457.671 321.128 458.333 321.128C458.995 321.128 459.531 320.592 459.531 319.93V256.27Z" fill="#FFD68A"/>
<path d="M460.299 256.27C460.299 255.608 459.762 255.072 459.101 255.072C458.439 255.072 457.902 255.608 457.902 256.27V319.93C457.902 320.592 458.439 321.128 459.101 321.128C459.762 321.128 460.299 320.592 460.299 319.93V256.27Z" fill="#D4A348"/>
<defs>
<linearGradient id="paint0_linear_105_847" x1="258.188" y1="0.152618" x2="258.188" y2="341.761" gradientUnits="userSpaceOnUse">
<stop stop-color="#005FE2"/>
<stop offset="0.98" stop-color="#ADD0FF"/>
<stop offset="1" stop-color="#00347C"/>
</linearGradient>
<linearGradient id="paint1_linear_105_847" x1="256" y1="338.601" x2="256" y2="348.99" gradientUnits="userSpaceOnUse">
<stop stop-color="#005FE2"/>
<stop offset="0.98" stop-color="#ADD0FF"/>
<stop offset="1" stop-color="#00347C"/>
</linearGradient>
</defs>
</svg>
