<?xml version="1.0" encoding="UTF-8"?>
<svg version="1.1" xmlns="http://www.w3.org/2000/svg" width="628" height="294">
<path d="M0 0 C207.24 0 414.48 0 628 0 C628 97.02 628 194.04 628 294 C420.76 294 213.52 294 0 294 C0 196.98 0 99.96 0 0 Z " fill="#FEFEFE" transform="translate(0,0)"/>
<path d="M0 0 C122.43 0 244.86 0 371 0 C371 20.13 371 40.26 371 61 C248.57 61 126.14 61 0 61 C0 40.87 0 20.74 0 0 Z " fill="#ED1C37" transform="translate(251,46)"/>
<path d="M0 0 C103.29 0 206.58 0 313 0 C313 19.8 313 39.6 313 60 C209.71 60 106.42 60 0 60 C0 40.2 0 20.4 0 0 Z " fill="#B31C8D" transform="translate(252,114)"/>
<path d="M0 0 C32.59586595 -0.02202629 65.19172471 -0.0404978 97.78759586 -0.05106533 C101.63175338 -0.05231611 105.47591087 -0.05361042 109.32006836 -0.05493164 C110.08540343 -0.05519395 110.8507385 -0.05545626 111.63926554 -0.05572652 C124.0478567 -0.06008338 136.45644324 -0.06797101 148.86503165 -0.0771528 C161.58784581 -0.08648891 174.31065754 -0.09205552 187.03347498 -0.09408849 C194.89049447 -0.09546381 202.74750092 -0.09981487 210.60451639 -0.10791647 C216.61905456 -0.11380407 222.6335814 -0.11445907 228.64812279 -0.11310768 C231.12297903 -0.11338421 233.59783574 -0.11539198 236.07268906 -0.11920547 C239.4354765 -0.12413572 242.79820689 -0.12300077 246.16099548 -0.12025452 C247.15416541 -0.12316736 248.14733533 -0.1260802 249.17060131 -0.12908131 C250.51121178 -0.12609474 250.51121178 -0.12609474 251.8789053 -0.12304783 C252.65619281 -0.12342755 253.43348033 -0.12380727 254.23432201 -0.1241985 C256 0 256 0 257 1 C257 20.8 257 40.6 257 61 C172.19 61 87.38 61 0 61 C0 40.87 0 20.74 0 0 Z " fill="#1B68B3" transform="translate(251,181)"/>
<path d="M0 0 C10.89 0 21.78 0 33 0 C33 24.42 33 48.84 33 74 C35.97 74 38.94 74 42 74 C42 49.58 42 25.16 42 0 C52.89 0 63.78 0 75 0 C75 64.68 75 129.36 75 196 C64.11 196 53.22 196 42 196 C42 164.32 42 132.64 42 100 C39.03 100 36.06 100 33 100 C33 131.68 33 163.36 33 196 C22.11 196 11.22 196 0 196 C0 131.32 0 66.64 0 0 Z " fill="#B31C8D" transform="translate(94,46)"/>
<path d="M0 0 C21.78 0 43.56 0 66 0 C66 8.58 66 17.16 66 26 C50.655 26.495 50.655 26.495 35 27 C34.67 43.5 34.34 60 34 77 C42.91 77 51.82 77 61 77 C61 84.92 61 92.84 61 101 C52.42 101 43.84 101 35 101 C35 122.45 35 143.9 35 166 C45.23 166 55.46 166 66 166 C66 175.9 66 185.8 66 196 C44.22 196 22.44 196 0 196 C0 131.32 0 66.64 0 0 Z " fill="#1968B3" transform="translate(177,46)"/>
<path d="M0 0 C25.41 0 50.82 0 77 0 C77 8.58 77 17.16 77 26 C70.07 26 63.14 26 56 26 C56 82.1 56 138.2 56 196 C44.12 196 32.24 196 20 196 C20 140.23 20 84.46 20 27 C13.4 27 6.8 27 0 27 C0 18.09 0 9.18 0 0 Z " fill="#ED1D38" transform="translate(10,46)"/>
<path d="M0 0 C103.29 0 206.58 0 313 0 C313 19.8 313 39.6 313 60 C209.71 60 106.42 60 0 60 C0 40.2 0 20.4 0 0 Z M1 2 C1 20.81 1 39.62 1 59 C103.3 59 205.6 59 311 59 C311 40.19 311 21.38 311 2 C208.7 2 106.4 2 1 2 Z " fill="#AE0E85" transform="translate(252,114)"/>
<path d="M0 0 C4.57757925 1.87264606 6.61302422 4.73754325 9 9 C11.5991757 18.55881063 11.42116382 32.03237623 7 41 C4.34694595 44.82351908 2.10029443 46.2893967 -2.375 47.1875 C-5.9549129 47.37842869 -7.99689656 46.83388222 -10.875 44.6875 C-17.28139571 38.16219207 -17.43406774 29.53084052 -17.35620117 20.83911133 C-17.09925071 12.99324579 -15.56656899 6.74613573 -10 1 C-6.8017988 -0.5991006 -3.4787562 -0.36195151 0 0 Z " fill="#FDF0F2" transform="translate(318,52)"/>
<path d="M0 0 C15 0 15 0 21 3 C25.71633863 8.92888646 25.63949328 14.55973191 25.5625 21.9375 C25.58634766 22.98357422 25.61019531 24.02964844 25.63476562 25.10742188 C25.62192397 31.91777774 24.64018303 36.83604565 20 42 C13.34013398 46.43991068 8.75307298 45 0 45 C0 30.15 0 15.3 0 0 Z " fill="#FDF0F2" transform="translate(395,53)"/>
<path d="M0 0 C18.2 0 18.2 0 23 4 C25.48302612 7.72453917 25.52899982 10.68661686 25 15 C23.75 18.4375 23.75 18.4375 22 21 C19.890625 21.66015625 19.890625 21.66015625 18 22 C18.31807617 22.93851807 18.31807617 22.93851807 18.64257812 23.89599609 C19.59816837 26.72128791 20.54913818 29.54811349 21.5 32.375 C21.83386719 33.35984375 22.16773438 34.3446875 22.51171875 35.359375 C22.82753906 36.30039063 23.14335937 37.24140625 23.46875 38.2109375 C23.76201172 39.08024902 24.05527344 39.94956055 24.35742188 40.84521484 C25 43 25 43 25 45 C23.35 45 21.7 45 20 45 C17.06158371 38.12380756 14.819794 31.25160335 13 24 C10.36 24 7.72 24 5 24 C5 30.93 5 37.86 5 45 C3.35 45 1.7 45 0 45 C0 30.15 0 15.3 0 0 Z " fill="#FAF1F8" transform="translate(401,121)"/>
<path d="M0 0 C17 0 17 0 23 4 C25.47291531 7.70937296 25.66549097 10.69865592 25 15 C23.25 18.4375 23.25 18.4375 21 21 C18.859375 21.66015625 18.859375 21.66015625 17 22 C17.20681396 22.51908936 17.41362793 23.03817871 17.62670898 23.57299805 C18.56801611 25.94278697 19.50280557 28.31509554 20.4375 30.6875 C20.92573242 31.91243164 20.92573242 31.91243164 21.42382812 33.16210938 C22.96339769 37.08245663 24.39344895 40.80540049 25 45 C23.02 45 21.04 45 19 45 C18.73445313 44.11957031 18.46890625 43.23914063 18.1953125 42.33203125 C17.84210938 41.17058594 17.48890625 40.00914063 17.125 38.8125 C16.77695312 37.66394531 16.42890625 36.51539063 16.0703125 35.33203125 C15.07192887 32.06875679 15.07192887 32.06875679 13.8671875 29.26171875 C13 27 13 27 13 24 C10.36 24 7.72 24 5 24 C5 30.93 5 37.86 5 45 C3.35 45 1.7 45 0 45 C0 30.15 0 15.3 0 0 Z " fill="#FDF2F3" transform="translate(336,53)"/>
<path d="M0 0 C18.66666667 0 18.66666667 0 23.875 4.6875 C25.54078936 8.11162258 25.6576587 11.31569695 25 15 C22 20.5 22 20.5 19 22 C19.64773135 26.79470103 20.96735509 31.2013795 22.5625 35.75 C25 42.74690083 25 42.74690083 25 45 C23.35 45 21.7 45 20 45 C17.16838531 38.0565193 14.52372657 31.06106477 12 24 C9.69 23.67 7.38 23.34 5 23 C5 30.26 5 37.52 5 45 C3.35 45 1.7 45 0 45 C0 30.15 0 15.3 0 0 Z " fill="#F2F6FA" transform="translate(260,191)"/>
<path d="M0 0 C1.65 0 3.3 0 5 0 C5.14622803 0.78238037 5.29245605 1.56476074 5.44311523 2.37084961 C6.10388792 5.89383483 6.77061155 9.41566759 7.4375 12.9375 C7.66759766 14.16919922 7.89769531 15.40089844 8.13476562 16.66992188 C8.35712891 17.83974609 8.57949219 19.00957031 8.80859375 20.21484375 C9.01282959 21.29886475 9.21706543 22.38288574 9.42749023 23.49975586 C9.75032714 25.92747316 9.75032714 25.92747316 11 27 C12.98 18.09 14.96 9.18 17 0 C18.65 0 20.3 0 22 0 C23.01527131 3.99628068 24.00942291 7.99753312 25 12 C25.28617187 13.12535156 25.57234375 14.25070313 25.8671875 15.41015625 C27.34700054 21.43510935 28.3650191 26.7946753 28 33 C28.66 33 29.32 33 30 33 C29.97035156 31.84371094 29.94070313 30.68742187 29.91015625 29.49609375 C29.91110025 25.20560119 30.55601677 21.24865111 31.4375 17.0625 C32.57255227 11.38261116 33.48472378 5.77109366 34 0 C35.65 0 37.3 0 39 0 C38.17231034 10.6728404 36.98672997 21.33061998 34.5078125 31.7578125 C33.51524222 36.14039205 32.77746697 40.57505502 32 45 C30.35 45 28.7 45 27 45 C23.535 29.16 23.535 29.16 20 13 C16.75166739 24.91957839 16.75166739 24.91957839 14.25 36.9375 C14.12496094 37.63294922 13.99992187 38.32839844 13.87109375 39.04492188 C13.57510715 40.69561637 13.28660971 42.34765159 13 44 C10.525 44.495 10.525 44.495 8 45 C6.03336552 39.10009655 5.25688841 33.17133882 4.46484375 27.01171875 C4.1702905 24.08595998 4.1702905 24.08595998 3 22 C2.71205148 20.33665893 2.4673067 18.66571153 2.24609375 16.9921875 C2.11396484 16.00605469 1.98183594 15.01992187 1.84570312 14.00390625 C1.71099609 12.97136719 1.57628906 11.93882813 1.4375 10.875 C1.29892578 9.83472656 1.16035156 8.79445313 1.01757812 7.72265625 C0.67519019 5.1488435 0.3361382 2.57463517 0 0 Z " fill="#FDEEF0" transform="translate(257,53)"/>
<path d="M0 0 C10.56 0 21.12 0 32 0 C32 64.68 32 129.36 32 196 C21.11 196 10.22 196 -1 196 C-0.67 164.65 -0.34 133.3 0 101 C0.33 101 0.66 101 1 101 C1 131.69 1 162.38 1 194 C10.57 194 20.14 194 30 194 C30 130.64 30 67.28 30 2 C20.43 2 10.86 2 1 2 C1 25.76 1 49.52 1 74 C0.67 74 0.34 74 0 74 C0 49.58 0 25.16 0 0 Z " fill="#B11489" transform="translate(137,46)"/>
<path d="M0 0 C1.65 0 3.3 0 5 0 C5 15.18 5 30.36 5 46 C3.02 46 1.04 46 -1 46 C-1.35304199 45.08710205 -1.70608398 44.1742041 -2.06982422 43.23364258 C-3.38529101 39.83232654 -4.70113476 36.43115644 -6.01708984 33.0300293 C-6.5855514 31.56066778 -7.15391204 30.09126722 -7.72216797 28.62182617 C-8.5410727 26.50429057 -9.3603456 24.38689773 -10.1796875 22.26953125 C-10.43185028 21.61725052 -10.68401306 20.96496979 -10.94381714 20.29292297 C-12.27533807 16.85309076 -13.6300282 13.4249295 -15 10 C-15.33 21.88 -15.66 33.76 -16 46 C-17.65 46 -19.3 46 -21 46 C-21 31.15 -21 16.3 -21 1 C-18.36 1 -15.72 1 -13 1 C-9.04 10.9 -5.08 20.8 -1 31 C-0.67 20.77 -0.34 10.54 0 0 Z " fill="#E5EEF6" transform="translate(344,190)"/>
<path d="M0 0 C2.64 0 5.28 0 8 0 C11.96 9.9 15.92 19.8 20 30 C20.33 20.1 20.66 10.2 21 0 C22.65 0 24.3 0 26 0 C26 14.85 26 29.7 26 45 C24.02 45 22.04 45 20 45 C15.38 33.12 10.76 21.24 6 9 C5.67 20.88 5.34 32.76 5 45 C3.35 45 1.7 45 0 45 C0 30.15 0 15.3 0 0 Z " fill="#F6E5F2" transform="translate(294,121)"/>
<path d="M0 0 C0.66 0 1.32 0 2 0 C2 64.02 2 128.04 2 194 C22.46 194 42.92 194 64 194 C64 185.42 64 176.84 64 168 C54.43 168 44.86 168 35 168 C35 167.67 35 167.34 35 167 C45.23 167 55.46 167 66 167 C66 176.57 66 186.14 66 196 C44.22 196 22.44 196 0 196 C0 131.32 0 66.64 0 0 Z " fill="#256CB5" transform="translate(177,46)"/>
<path d="M0 0 C2.64 0 5.28 0 8 0 C10.54431038 9.90784396 12.9309727 19.84962841 15.25 29.8125 C15.52021973 30.96347168 15.79043945 32.11444336 16.06884766 33.30029297 C16.31940918 34.3832666 16.5699707 35.46624023 16.828125 36.58203125 C17.0540332 37.55374268 17.27994141 38.5254541 17.51269531 39.52661133 C18 42 18 42 18 45 C16.35 45 14.7 45 13 45 C11.43560486 40.11126518 11 37.39277414 11 32 C6.38 32 1.76 32 -3 32 C-3.144375 33.77375 -3.28875 35.5475 -3.4375 37.375 C-3.875 42.75 -3.875 42.75 -5 45 C-6.65 45 -8.3 45 -10 45 C-9.01472309 38.35807448 -7.78394507 31.93995064 -5.9296875 25.48828125 C-3.68385036 17.06167384 -1.89764722 8.51069439 0 0 Z " fill="#EEF4F9" transform="translate(299,191)"/>
<path d="M0 0 C3.62815886 1.41971434 4.73109843 2.57346648 6.8125 5.875 C7.95502918 8.88165574 8.27977787 10.82918411 8 14 C6.35 14 4.7 14 3 14 C2.71125 12.88625 2.4225 11.7725 2.125 10.625 C1.30758671 6.99708908 1.30758671 6.99708908 -1 5 C-5.19661382 4.51676783 -5.19661382 4.51676783 -8.8125 6.375 C-12.30738205 11.15747017 -11.18444272 17.11678054 -11.1875 22.8125 C-11.19974609 24.00166016 -11.21199219 25.19082031 -11.22460938 26.41601562 C-11.22654297 27.56392578 -11.22847656 28.71183594 -11.23046875 29.89453125 C-11.23457764 30.94487549 -11.23868652 31.99521973 -11.24291992 33.07739258 C-11.10718477 36.44062146 -11.10718477 36.44062146 -9 41 C-5.37 41 -1.74 41 2 41 C2.66 37.04 3.32 33.08 4 29 C1.69 29 -0.62 29 -3 29 C-3 27.35 -3 25.7 -3 24 C0.96 24 4.92 24 9 24 C9 31.26 9 38.52 9 46 C7.68 46 6.36 46 5 46 C5 45.34 5 44.68 5 44 C4.154375 44.495 3.30875 44.99 2.4375 45.5 C-1.54883337 47.23949093 -3.6988098 47.67913529 -8 47 C-13.04954173 44.15768063 -15.49844527 40.78203628 -17.41552734 35.27880859 C-18.45714968 31.21761273 -18.47245238 27.23454303 -18.4375 23.0625 C-18.45748047 22.22009766 -18.47746094 21.37769531 -18.49804688 20.50976562 C-18.49239652 13.16995188 -16.62015412 7.06932339 -11.8125 1.4375 C-7.81280675 -0.60678766 -4.40416119 -0.64861283 0 0 Z " fill="#E8EFF7" transform="translate(455,190)"/>
<path d="M0 0 C2.31 0 4.62 0 7 0 C10.08620255 5.9643465 12.71899957 12.00696326 15.1875 18.25 C15.72020508 19.57644531 15.72020508 19.57644531 16.26367188 20.9296875 C17.73702332 24.63123838 19.03078235 28.12312939 20 32 C20.33 21.44 20.66 10.88 21 0 C22.32 0 23.64 0 25 0 C25 14.85 25 29.7 25 45 C23.35 45 21.7 45 20 45 C18.02117019 40.09003568 16.04575866 35.17871534 14.07348633 30.26611328 C13.40222173 28.59548952 12.73002863 26.92523853 12.05688477 25.25537109 C11.08885599 22.85351668 10.12418669 20.45033654 9.16015625 18.046875 C8.85908463 17.30193787 8.558013 16.55700073 8.24781799 15.78948975 C6.9440066 12.53048841 5.85336394 9.41345575 5 6 C4.67 18.87 4.34 31.74 4 45 C2.68 45 1.36 45 0 45 C0 30.15 0 15.3 0 0 Z " fill="#F9FBFD" transform="translate(404,191)"/>
<path d="M0 0 C3.375 1.1875 3.375 1.1875 5.25 3.4375 C8.71021592 11.89580559 8.79540912 23.8939081 6 32.5625 C4.375 36.1875 4.375 36.1875 2.375 38.1875 C-1.0625 38.5625 -1.0625 38.5625 -4.625 38.1875 C-9.21298791 33.75244502 -8.85099286 28.31417817 -8.95703125 22.33007812 C-8.97121094 21.18990234 -8.98539062 20.04972656 -9 18.875 C-9.03738281 17.74642578 -9.07476562 16.61785156 -9.11328125 15.45507812 C-9.21210574 6.12714419 -9.21210574 6.12714419 -6.328125 2.40625 C-3.625 0.1875 -3.625 0.1875 0 0 Z " fill="#EC1B35" transform="translate(315.625,55.8125)"/>
<path d="M0 0 C9 0 9 0 12 2.375 C15.79941447 7.3617315 15.25381627 11.64689252 15.3125 17.75 C15.34150391 18.74 15.37050781 19.73 15.40039062 20.75 C15.45334514 26.8438422 15.07199062 30.36583157 11 35 C7.26994824 37.82969444 5.21944378 37 0 37 C0 24.79 0 12.58 0 0 Z " fill="#EC1B35" transform="translate(400,57)"/>
<path d="M0 0 C1.65 0 3.3 0 5 0 C5.33 7.26 5.66 14.52 6 22 C8.7844926 17.00617088 8.7844926 17.00617088 11.56347656 12.00927734 C16.19345139 3.74206482 16.19345139 3.74206482 19 0 C21.75 -0.375 21.75 -0.375 24 0 C22.67240736 3.69502386 20.97099648 6.5116026 18.6875 9.6875 C16.54126632 13.23205333 16.54126632 13.23205333 16.03125 17.23828125 C16.81655305 19.94477213 17.86663478 22.41698158 19 25 C19.92314969 27.33527364 20.82570757 29.67799564 21.7277832 32.02148438 C22.36293729 33.6618009 23.00719079 35.29862559 23.66088867 36.93164062 C24.11298706 38.06375977 24.11298706 38.06375977 24.57421875 39.21875 C24.84838623 39.89873047 25.12255371 40.57871094 25.4050293 41.27929688 C26 43 26 43 26 45 C24.35 45 22.7 45 21 45 C17.76755759 37.40905942 14.74207152 29.78196834 12 22 C7.61569749 27.40730643 5.68703017 30.72532684 5.375 37.6875 C5.33632813 38.38939453 5.29765625 39.09128906 5.2578125 39.81445312 C5.1637666 41.54254655 5.0808032 43.27123675 5 45 C3.35 45 1.7 45 0 45 C0 30.15 0 15.3 0 0 Z " fill="#F5F8FB" transform="translate(358,191)"/>
<path d="M0 0 C1.65 0 3.3 0 5 0 C5.02505615 1.09989258 5.0501123 2.19978516 5.07592773 3.33300781 C5.17018206 7.41824765 5.27035865 11.50332461 5.37231445 15.58837891 C5.41559514 17.35559272 5.45727505 19.1228465 5.49731445 20.89013672 C5.55518351 23.4320886 5.61882981 25.97384059 5.68359375 28.515625 C5.70030624 29.30430969 5.71701874 30.09299438 5.73423767 30.90557861 C5.8288914 34.41959549 6.06273524 37.61519632 7 41 C8.43489809 41.13536774 9.87347107 41.23217143 11.3125 41.3125 C12.51326172 41.39951172 12.51326172 41.39951172 13.73828125 41.48828125 C16.17801853 41.21040082 16.17801853 41.21040082 17.609375 38.9921875 C19.37672709 35.18940182 19.47720332 31.75080036 19.51171875 27.63671875 C19.52966995 26.84473587 19.54762115 26.05275299 19.56611633 25.23677063 C19.62006838 22.72040038 19.65406563 20.20421815 19.6875 17.6875 C19.72068651 15.97588538 19.75517741 14.26429552 19.79101562 12.55273438 C19.87578582 8.36862558 19.94266843 4.18457107 20 0 C21.65 0 23.3 0 25 0 C25.0745169 4.99874665 25.12877437 9.99716533 25.16479492 14.99633789 C25.17982126 16.69463742 25.20024823 18.39289855 25.22631836 20.09106445 C25.26297449 22.54127518 25.27978789 24.99097 25.29296875 27.44140625 C25.30845261 28.19273331 25.32393646 28.94406036 25.33988953 29.71815491 C25.34151058 34.87061479 24.43554564 38.43276481 22 43 C17.96700667 45.97673317 14.08953076 46.57873573 9.1875 46.4296875 C5.40856851 45.68739739 3.62546008 43.75673308 1 41 C-0.66577625 37.66844749 -0.12007856 33.93463941 -0.09765625 30.2734375 C-0.0962413 29.41062164 -0.09482635 28.54780579 -0.09336853 27.65884399 C-0.08776188 24.8975277 -0.07520827 22.13629188 -0.0625 19.375 C-0.05748586 17.5052095 -0.0529228 15.63541774 -0.04882812 13.765625 C-0.03779029 9.17705223 -0.0205212 4.58853977 0 0 Z " fill="#FAF1F8" transform="translate(260,121)"/>
<path d="M0 0 C2.125 1.6875 2.125 1.6875 4.125 4.6875 C4.25 7.875 4.25 7.875 4.125 10.6875 C2.805 10.6875 1.485 10.6875 0.125 10.6875 C-0.349375 9.718125 -0.82375 8.74875 -1.3125 7.75 C-2.57693947 4.88272563 -2.57693947 4.88272563 -3.875 3.6875 C-7.33321402 3.43746036 -7.33321402 3.43746036 -10.875 3.6875 C-11.535 4.3475 -12.195 5.0075 -12.875 5.6875 C-12.81514799 9.94696835 -12.50067433 12.02193368 -9.546875 15.1640625 C-8.58265625 15.87304688 -7.6184375 16.58203125 -6.625 17.3125 C3.06452484 24.56654968 3.06452484 24.56654968 5.125 28.6875 C5.55532996 32.89976823 5.55129046 36.59809104 4 40.5625 C0.71153613 44.28942572 -2.49264256 45.51470532 -7.375 46.125 C-11.60736123 45.59595485 -13.65412585 44.45894985 -16.875 41.6875 C-18.72836027 38.31775406 -18.875 36.61643511 -18.875 32.6875 C-17.225 32.6875 -15.575 32.6875 -13.875 32.6875 C-12.39 36.1525 -12.39 36.1525 -10.875 39.6875 C-6.8649066 39.86614631 -6.8649066 39.86614631 -2.875 39.6875 C-0.47648679 37.70357489 -0.47648679 37.70357489 -0.4375 33.875 C-0.54650893 30.67931727 -0.75566894 29.84660808 -2.75 27.1875 C-3.76778876 26.325166 -4.81487438 25.49722067 -5.875 24.6875 C-7.60486775 23.31338213 -9.33397953 21.93831224 -11.0625 20.5625 C-11.92230469 19.89992187 -12.78210938 19.23734375 -13.66796875 18.5546875 C-16.23545651 16.38254741 -17.72431754 14.73702084 -18.2109375 11.34765625 C-18.31673648 4.31202399 -18.31673648 4.31202399 -16.0625 1.125 C-11.07819347 -2.15040143 -5.33687279 -2.43639845 0 0 Z " fill="#EFF4F9" transform="translate(488.875,191.3125)"/>
<path d="M0 0 C3.375 2.0625 3.375 2.0625 6 5 C6.875 8.8125 6.875 8.8125 7 12 C5.35 12 3.7 12 2 12 C1.71125 11.030625 1.4225 10.06125 1.125 9.0625 C0.35785318 5.89335797 0.35785318 5.89335797 -2 5 C-5 4.75 -5 4.75 -8 5 C-10.26298437 6.86963998 -10.26298437 6.86963998 -10.4375 9.8125 C-9.523454 16.47197797 -2.3288236 20.17924633 2.6953125 24.03515625 C5.5635215 26.48042595 7.70630267 28.39042348 8.3984375 32.18359375 C8.3492751 36.91137757 8.19765454 40.25102571 5 44 C1.33680152 47.12449282 -2.10308488 47.59353249 -6.77734375 47.40625 C-10.8436344 46.6630264 -12.33801485 45.19438218 -15 42 C-15.76863774 39.22777989 -15.90134612 36.91028938 -16 34 C-14.35 34 -12.7 34 -11 34 C-10.71125 35.134375 -10.4225 36.26875 -10.125 37.4375 C-9.75375 38.613125 -9.3825 39.78875 -9 41 C-6.20129973 42.39935013 -4.09501208 42.25265405 -1 42 C1.03882095 41.12870693 1.03882095 41.12870693 2 39 C2.6065499 35.69154601 2.89413255 34.12081102 2 31 C-0.31084968 28.19951292 -3.11081501 26.17544386 -6 24 C-7.48937038 22.72011224 -8.96903832 21.42882403 -10.4375 20.125 C-11.09621094 19.55007812 -11.75492187 18.97515625 -12.43359375 18.3828125 C-14.98284314 16.13235294 -14.98284314 16.13235294 -15.2734375 13.890625 C-15.54896142 6.72700297 -15.54896142 6.72700297 -12.6875 2.9375 C-8.46215553 -0.10867857 -5.13724549 -0.52243174 0 0 Z " fill="#FBF2F8" transform="translate(448,120)"/>
<path d="M0 0 C7.26 0 14.52 0 22 0 C22 1.32 22 2.64 22 4 C16.39 4 10.78 4 5 4 C5 9.28 5 14.56 5 20 C9.29 20 13.58 20 18 20 C18 21.32 18 22.64 18 24 C13.71 24 9.42 24 5 24 C5 29.61 5 35.22 5 41 C10.94 41 16.88 41 23 41 C23 42.32 23 43.64 23 45 C15.41 45 7.82 45 0 45 C0 30.15 0 15.3 0 0 Z " fill="#FAF2F8" transform="translate(372,121)"/>
<path d="M0 0 C1.65 0 3.3 0 5 0 C7.64 10.23 10.28 20.46 13 31 C15.09454706 27.85817941 15.66483395 25.7437758 16.47265625 22.08984375 C16.73240234 20.93548828 16.99214844 19.78113281 17.25976562 18.59179688 C17.52466797 17.38587891 17.78957031 16.17996094 18.0625 14.9375 C18.5928496 12.55029087 19.12529481 10.16354604 19.66015625 7.77734375 C19.89355713 6.71765381 20.12695801 5.65796387 20.36743164 4.56616211 C21 2 21 2 22 0 C23.65 0 25.3 0 27 0 C24.84495064 10.74989327 22.46879843 21.42448167 19.8125 32.0625 C19.41973877 33.6412793 19.41973877 33.6412793 19.01904297 35.25195312 C17.12959704 42.74080593 17.12959704 42.74080593 16 45 C14.35 45 12.7 45 11 45 C9.50363823 39.86159001 8.13571367 34.70306956 6.8359375 29.51171875 C6.63900299 28.72730911 6.44206848 27.94289948 6.23916626 27.13471985 C5.82679785 25.49027659 5.41505312 23.84567683 5.00390625 22.20092773 C4.37235306 19.67692147 3.73703043 17.15388249 3.1015625 14.63085938 C2.70029084 13.02870342 2.2992412 11.42649184 1.8984375 9.82421875 C1.7078476 9.06904465 1.51725769 8.31387054 1.32089233 7.53581238 C0 2.2288512 0 2.2288512 0 0 Z " fill="#FAF1F8" transform="translate(340,121)"/>
<path d="M0 0 C2.265625 0 2.265625 0 5 1 C6.67279407 3.48901827 7.68049442 6.20873431 8.75 9 C10.35002668 13.85077743 10.35002668 13.85077743 13 18 C13.49371094 16.78441406 13.98742187 15.56882813 14.49609375 14.31640625 C15.14309709 12.7317169 15.7902397 11.14708441 16.4375 9.5625 C16.76298828 8.76005859 17.08847656 7.95761719 17.42382812 7.13085938 C17.73642578 6.36708984 18.04902344 5.60332031 18.37109375 4.81640625 C18.65911865 4.10943604 18.94714355 3.40246582 19.24389648 2.67407227 C20 1 20 1 21 0 C22.66617115 -0.04063832 24.33388095 -0.042721 26 0 C24.94112452 3.49262593 23.67929995 6.76191234 22.08984375 10.0390625 C16.47151505 21.85902245 14.78004097 31.95368015 15 45 C13.35 45 11.7 45 10 45 C10.03222656 43.81148437 10.06445312 42.62296875 10.09765625 41.3984375 C10.11847857 27.78202515 6.63406511 17.2762963 0.81030273 5.04272461 C0 3 0 3 0 0 Z " fill="#FBF4F9" transform="translate(501,121)"/>
<path d="M0 0 C7.92 0 15.84 0 24 0 C24 1.32 24 2.64 24 4 C21.03 4 18.06 4 15 4 C15 17.53 15 31.06 15 45 C13.35 45 11.7 45 10 45 C10 31.47 10 17.94 10 4 C6.7 4 3.4 4 0 4 C0 2.68 0 1.36 0 0 Z " fill="#F9EFF7" transform="translate(475,121)"/>
<path d="M0 0 C1.65 0 3.3 0 5 0 C5 13.2 5 26.4 5 40 C9.95 40 14.9 40 20 40 C20 41.65 20 43.3 20 45 C13.4 45 6.8 45 0 45 C0 30.15 0 15.3 0 0 Z " fill="#FDF0F2" transform="translate(369,53)"/>
<path d="M0 0 C1.65 0 3.3 0 5 0 C5 14.85 5 29.7 5 45 C3.35 45 1.7 45 0 45 C0 30.15 0 15.3 0 0 Z " fill="#FAFBFD" transform="translate(389,191)"/>
<path d="M0 0 C1.65 0 3.3 0 5 0 C5 14.85 5 29.7 5 45 C3.35 45 1.7 45 0 45 C0 30.15 0 15.3 0 0 Z " fill="#FDFAFC" transform="translate(464,121)"/>
<path d="M0 0 C1.65 0 3.3 0 5 0 C5 14.85 5 29.7 5 45 C3.35 45 1.7 45 0 45 C0 30.15 0 15.3 0 0 Z " fill="#FBF3F9" transform="translate(329,121)"/>
<path d="M0 0 C25.41 0 50.82 0 77 0 C77 8.58 77 17.16 77 26 C70.07 26 63.14 26 56 26 C56 25.67 56 25.34 56 25 C62.27 25 68.54 25 75 25 C75 17.41 75 9.82 75 2 C50.25 2 25.5 2 0 2 C0 1.34 0 0.68 0 0 Z " fill="#EB0F2A" transform="translate(10,46)"/>
<path d="M0 0 C21.12 0 42.24 0 64 0 C64 8.58 64 17.16 64 26 C53.44 26 42.88 26 32 26 C32 25.67 32 25.34 32 25 C41.9 25 51.8 25 62 25 C62 17.41 62 9.82 62 2 C41.54 2 21.08 2 0 2 C0 1.34 0 0.68 0 0 Z " fill="#0E5FAE" transform="translate(179,46)"/>
<path d="M0 0 C9.40212264 -0.27653302 9.40212264 -0.27653302 13 2 C14.58910767 5.17821535 14.40420974 8.53939729 14 12 C12.18836733 14.67431489 11.12238923 14.95920359 8 16 C5.36 16 2.72 16 0 16 C0 10.72 0 5.44 0 0 Z " fill="#B41F8E" transform="translate(406,125)"/>
<path d="M0 0 C1.5675 -0.061875 3.135 -0.12375 4.75 -0.1875 C6.07257813 -0.23970703 6.07257813 -0.23970703 7.421875 -0.29296875 C10.53863474 0.06120849 11.83109413 0.7465267 14 3 C14.53125 5.15625 14.53125 5.15625 14.5 7.5 C14.5103125 8.2734375 14.520625 9.046875 14.53125 9.84375 C14 12 14 12 12.296875 13.76953125 C9.55453204 15.23864355 7.83943842 15.30945152 4.75 15.1875 C3.1825 15.125625 1.615 15.06375 0 15 C0 10.05 0 5.1 0 0 Z " fill="#1865B2" transform="translate(265,195)"/>
<path d="M0 0 C9.18762089 -0.48355899 9.18762089 -0.48355899 12.625 1.5625 C14.54211763 4.96102671 14.54861638 7.15968535 14 11 C12.625 13.4375 12.625 13.4375 10 15 C6.59264014 15.32578206 3.43853858 15.18097571 0 15 C0 10.05 0 5.1 0 0 Z " fill="#EC1832" transform="translate(341,57)"/>
<path d="M0 0 C2.31 0 4.62 0 7 0 C7 0.33 7 0.66 7 1 C5.35 1 3.7 1 2 1 C2 12.22 2 23.44 2 35 C9.73196194 33.98093159 9.73196194 33.98093159 11.9375 30.3125 C13.95946774 24.24659679 13.76301878 17.34946229 14 11 C14.33 11 14.66 11 15 11 C15.10852923 13.87602455 15.1875515 16.74790832 15.25 19.625 C15.30027344 20.83736328 15.30027344 20.83736328 15.3515625 22.07421875 C15.44097225 27.57291815 14.66447856 30.63265125 11 35 C7.26994824 37.82969444 5.21944378 37 0 37 C0 24.79 0 12.58 0 0 Z " fill="#ED2B3D" transform="translate(400,57)"/>
<path d="M0 0 C0.66 0 1.32 0 2 0 C3.32 7.26 4.64 14.52 6 22 C2.7 22 -0.6 22 -4 22 C-3.79503906 20.91460937 -3.59007812 19.82921875 -3.37890625 18.7109375 C-3.10673817 17.26563115 -2.83460458 15.8203183 -2.5625 14.375 C-2.42779297 13.66214844 -2.29308594 12.94929687 -2.15429688 12.21484375 C-1.38981729 8.15004987 -0.66330363 4.08285925 0 0 Z " fill="#1C67B3" transform="translate(302,196)"/>
<path d="M0 0 C0.66 0 1.32 0 2 0 C1.67 3.96 1.34 7.92 1 12 C0.34 12 -0.32 12 -1 12 C-1.02712066 10.56260487 -1.04645067 9.12506137 -1.0625 7.6875 C-1.07410156 6.88699219 -1.08570313 6.08648437 -1.09765625 5.26171875 C-1 3 -1 3 0 0 Z " fill="#ED263D" transform="translate(286,74)"/>
<path d="M0 0 C2.4294516 3.6441774 2.16179575 5.71241272 2 10 C1.34 10 0.68 10 0 10 C-0.33 10.66 -0.66 11.32 -1 12 C-1.08159574 7.83861737 -0.98248524 4.0527516 0 0 Z " fill="#EB1229" transform="translate(276,63)"/>
<path d="M0 0 C0.99 0.33 1.98 0.66 3 1 C2.67 4.96 2.34 8.92 2 13 C1.67 13 1.34 13 1 13 C0.67 8.71 0.34 4.42 0 0 Z " fill="#EB0D22" transform="translate(266,73)"/>
</svg>
