<svg width="42" height="18" viewBox="0 0 42 18" fill="none" xmlns="http://www.w3.org/2000/svg">
<rect width="42" height="18" rx="2" fill="#00BFB8"/>
<path d="M13.988 11.512H10.844L10.34 13H8.192L11.24 4.576H13.616L16.664 13H14.492L13.988 11.512ZM13.46 9.928L12.416 6.844L11.384 9.928H13.46ZM17.2437 8.776C17.2437 7.944 17.4237 7.204 17.7837 6.556C18.1437 5.9 18.6437 5.392 19.2837 5.032C19.9317 4.664 20.6637 4.48 21.4797 4.48C22.4797 4.48 23.3357 4.744 24.0477 5.272C24.7597 5.8 25.2357 6.52 25.4757 7.432H23.2197C23.0517 7.08 22.8117 6.812 22.4997 6.628C22.1957 6.444 21.8477 6.352 21.4557 6.352C20.8237 6.352 20.3117 6.572 19.9197 7.012C19.5277 7.452 19.3317 8.04 19.3317 8.776C19.3317 9.512 19.5277 10.1 19.9197 10.54C20.3117 10.98 20.8237 11.2 21.4557 11.2C21.8477 11.2 22.1957 11.108 22.4997 10.924C22.8117 10.74 23.0517 10.472 23.2197 10.12H25.4757C25.2357 11.032 24.7597 11.752 24.0477 12.28C23.3357 12.8 22.4797 13.06 21.4797 13.06C20.6637 13.06 19.9317 12.88 19.2837 12.52C18.6437 12.152 18.1437 11.644 17.7837 10.996C17.4237 10.348 17.2437 9.608 17.2437 8.776ZM32.7923 4.576V6.22H30.5603V13H28.5083V6.22H26.2763V4.576H32.7923Z" fill="white"/>
</svg>
