<svg width="87" height="18" viewBox="0 0 87 18" fill="none" xmlns="http://www.w3.org/2000/svg">
<rect width="87" height="18" rx="2" fill="#E05143"/>
<path d="M8.396 8.776C8.396 7.944 8.576 7.204 8.936 6.556C9.296 5.9 9.796 5.392 10.436 5.032C11.084 4.664 11.816 4.48 12.632 4.48C13.632 4.48 14.488 4.744 15.2 5.272C15.912 5.8 16.388 6.52 16.628 7.432H14.372C14.204 7.08 13.964 6.812 13.652 6.628C13.348 6.444 13 6.352 12.608 6.352C11.976 6.352 11.464 6.572 11.072 7.012C10.68 7.452 10.484 8.04 10.484 8.776C10.484 9.512 10.68 10.1 11.072 10.54C11.464 10.98 11.976 11.2 12.608 11.2C13 11.2 13.348 11.108 13.652 10.924C13.964 10.74 14.204 10.472 14.372 10.12H16.628C16.388 11.032 15.912 11.752 15.2 12.28C14.488 12.8 13.632 13.06 12.632 13.06C11.816 13.06 11.084 12.88 10.436 12.52C9.796 12.152 9.296 11.644 8.936 10.996C8.576 10.348 8.396 9.608 8.396 8.776ZM17.4766 9.64C17.4766 8.952 17.6046 8.348 17.8606 7.828C18.1246 7.308 18.4806 6.908 18.9286 6.628C19.3766 6.348 19.8766 6.208 20.4286 6.208C20.9006 6.208 21.3126 6.304 21.6646 6.496C22.0246 6.688 22.3006 6.94 22.4926 7.252V6.304H24.5446V13H22.4926V12.052C22.2926 12.364 22.0126 12.616 21.6526 12.808C21.3006 13 20.8886 13.096 20.4166 13.096C19.8726 13.096 19.3766 12.956 18.9286 12.676C18.4806 12.388 18.1246 11.984 17.8606 11.464C17.6046 10.936 17.4766 10.328 17.4766 9.64ZM22.4926 9.652C22.4926 9.14 22.3486 8.736 22.0606 8.44C21.7806 8.144 21.4366 7.996 21.0286 7.996C20.6206 7.996 20.2726 8.144 19.9846 8.44C19.7046 8.728 19.5646 9.128 19.5646 9.64C19.5646 10.152 19.7046 10.56 19.9846 10.864C20.2726 11.16 20.6206 11.308 21.0286 11.308C21.4366 11.308 21.7806 11.16 22.0606 10.864C22.3486 10.568 22.4926 10.164 22.4926 9.652ZM34.5732 6.232C35.4052 6.232 36.0652 6.484 36.5532 6.988C37.0492 7.492 37.2972 8.192 37.2972 9.088V13H35.2572V9.364C35.2572 8.932 35.1412 8.6 34.9092 8.368C34.6852 8.128 34.3732 8.008 33.9732 8.008C33.5732 8.008 33.2572 8.128 33.0252 8.368C32.8012 8.6 32.6892 8.932 32.6892 9.364V13H30.6492V9.364C30.6492 8.932 30.5332 8.6 30.3012 8.368C30.0772 8.128 29.7652 8.008 29.3652 8.008C28.9652 8.008 28.6492 8.128 28.4172 8.368C28.1932 8.6 28.0812 8.932 28.0812 9.364V13H26.0292V6.304H28.0812V7.144C28.2892 6.864 28.5612 6.644 28.8972 6.484C29.2332 6.316 29.6132 6.232 30.0372 6.232C30.5412 6.232 30.9892 6.34 31.3812 6.556C31.7812 6.772 32.0932 7.08 32.3172 7.48C32.5492 7.112 32.8652 6.812 33.2652 6.58C33.6652 6.348 34.1012 6.232 34.5732 6.232ZM40.7843 7.252C40.9763 6.94 41.2523 6.688 41.6123 6.496C41.9723 6.304 42.3843 6.208 42.8483 6.208C43.4003 6.208 43.9003 6.348 44.3483 6.628C44.7963 6.908 45.1483 7.308 45.4043 7.828C45.6683 8.348 45.8003 8.952 45.8003 9.64C45.8003 10.328 45.6683 10.936 45.4043 11.464C45.1483 11.984 44.7963 12.388 44.3483 12.676C43.9003 12.956 43.4003 13.096 42.8483 13.096C42.3763 13.096 41.9643 13.004 41.6123 12.82C41.2603 12.628 40.9843 12.376 40.7843 12.064V13H38.7323V4.12H40.7843V7.252ZM43.7123 9.64C43.7123 9.128 43.5683 8.728 43.2803 8.44C43.0003 8.144 42.6523 7.996 42.2363 7.996C41.8283 7.996 41.4803 8.144 41.1923 8.44C40.9123 8.736 40.7723 9.14 40.7723 9.652C40.7723 10.164 40.9123 10.568 41.1923 10.864C41.4803 11.16 41.8283 11.308 42.2363 11.308C42.6443 11.308 42.9923 11.16 43.2803 10.864C43.5683 10.56 43.7123 10.152 43.7123 9.64ZM48.9288 7.42C49.1688 7.052 49.4688 6.764 49.8288 6.556C50.1888 6.34 50.5888 6.232 51.0288 6.232V8.404H50.4648C49.9528 8.404 49.5688 8.516 49.3128 8.74C49.0568 8.956 48.9288 9.34 48.9288 9.892V13H46.8768V6.304H48.9288V7.42ZM53.0416 5.608C52.6816 5.608 52.3856 5.504 52.1536 5.296C51.9296 5.08 51.8176 4.816 51.8176 4.504C51.8176 4.184 51.9296 3.92 52.1536 3.712C52.3856 3.496 52.6816 3.388 53.0416 3.388C53.3936 3.388 53.6816 3.496 53.9056 3.712C54.1376 3.92 54.2536 4.184 54.2536 4.504C54.2536 4.816 54.1376 5.08 53.9056 5.296C53.6816 5.504 53.3936 5.608 53.0416 5.608ZM54.0616 6.304V13H52.0096V6.304H54.0616ZM55.1407 9.64C55.1407 8.952 55.2687 8.348 55.5247 7.828C55.7887 7.308 56.1447 6.908 56.5927 6.628C57.0407 6.348 57.5407 6.208 58.0927 6.208C58.5327 6.208 58.9327 6.3 59.2927 6.484C59.6607 6.668 59.9487 6.916 60.1567 7.228V4.12H62.2087V13H60.1567V12.04C59.9647 12.36 59.6887 12.616 59.3287 12.808C58.9767 13 58.5647 13.096 58.0927 13.096C57.5407 13.096 57.0407 12.956 56.5927 12.676C56.1447 12.388 55.7887 11.984 55.5247 11.464C55.2687 10.936 55.1407 10.328 55.1407 9.64ZM60.1567 9.652C60.1567 9.14 60.0127 8.736 59.7247 8.44C59.4447 8.144 59.1007 7.996 58.6927 7.996C58.2847 7.996 57.9367 8.144 57.6487 8.44C57.3687 8.728 57.2287 9.128 57.2287 9.64C57.2287 10.152 57.3687 10.56 57.6487 10.864C57.9367 11.16 58.2847 11.308 58.6927 11.308C59.1007 11.308 59.4447 11.16 59.7247 10.864C60.0127 10.568 60.1567 10.164 60.1567 9.652ZM66.2372 6.208C66.7092 6.208 67.1212 6.304 67.4732 6.496C67.8332 6.688 68.1092 6.94 68.3012 7.252V6.304H70.3532V12.988C70.3532 13.604 70.2292 14.16 69.9812 14.656C69.7412 15.16 69.3692 15.56 68.8652 15.856C68.3692 16.152 67.7492 16.3 67.0052 16.3C66.0132 16.3 65.2092 16.064 64.5932 15.592C63.9772 15.128 63.6252 14.496 63.5372 13.696H65.5652C65.6292 13.952 65.7812 14.152 66.0212 14.296C66.2612 14.448 66.5572 14.524 66.9092 14.524C67.3332 14.524 67.6692 14.4 67.9172 14.152C68.1732 13.912 68.3012 13.524 68.3012 12.988V12.04C68.1012 12.352 67.8252 12.608 67.4732 12.808C67.1212 13 66.7092 13.096 66.2372 13.096C65.6852 13.096 65.1852 12.956 64.7372 12.676C64.2892 12.388 63.9332 11.984 63.6692 11.464C63.4132 10.936 63.2852 10.328 63.2852 9.64C63.2852 8.952 63.4132 8.348 63.6692 7.828C63.9332 7.308 64.2892 6.908 64.7372 6.628C65.1852 6.348 65.6852 6.208 66.2372 6.208ZM68.3012 9.652C68.3012 9.14 68.1572 8.736 67.8692 8.44C67.5892 8.144 67.2452 7.996 66.8372 7.996C66.4292 7.996 66.0812 8.144 65.7932 8.44C65.5132 8.728 65.3732 9.128 65.3732 9.64C65.3732 10.152 65.5132 10.56 65.7932 10.864C66.0812 11.16 66.4292 11.308 66.8372 11.308C67.2452 11.308 67.5892 11.16 67.8692 10.864C68.1572 10.568 68.3012 10.164 68.3012 9.652ZM78.1497 9.544C78.1497 9.736 78.1378 9.936 78.1138 10.144H73.4698C73.5018 10.56 73.6338 10.88 73.8658 11.104C74.1058 11.32 74.3978 11.428 74.7418 11.428C75.2538 11.428 75.6098 11.212 75.8098 10.78H77.9938C77.8818 11.22 77.6778 11.616 77.3818 11.968C77.0938 12.32 76.7298 12.596 76.2898 12.796C75.8498 12.996 75.3578 13.096 74.8138 13.096C74.1578 13.096 73.5738 12.956 73.0618 12.676C72.5498 12.396 72.1498 11.996 71.8618 11.476C71.5738 10.956 71.4298 10.348 71.4298 9.652C71.4298 8.956 71.5698 8.348 71.8498 7.828C72.1378 7.308 72.5378 6.908 73.0498 6.628C73.5618 6.348 74.1498 6.208 74.8138 6.208C75.4618 6.208 76.0378 6.344 76.5418 6.616C77.0458 6.888 77.4378 7.276 77.7178 7.78C78.0058 8.284 78.1497 8.872 78.1497 9.544ZM76.0498 9.004C76.0498 8.652 75.9298 8.372 75.6898 8.164C75.4498 7.956 75.1498 7.852 74.7898 7.852C74.4458 7.852 74.1538 7.952 73.9138 8.152C73.6818 8.352 73.5378 8.636 73.4818 9.004H76.0498Z" fill="white"/>
</svg>
