<svg width="72" height="18" viewBox="0 0 72 18" fill="none" xmlns="http://www.w3.org/2000/svg">
<rect width="72" height="18" rx="2" fill="#58CC02"/>
<path d="M11.9 4.576C12.788 4.576 13.564 4.752 14.228 5.104C14.892 5.456 15.404 5.952 15.764 6.592C16.132 7.224 16.316 7.956 16.316 8.788C16.316 9.612 16.132 10.344 15.764 10.984C15.404 11.624 14.888 12.12 14.216 12.472C13.552 12.824 12.78 13 11.9 13H8.744V4.576H11.9ZM11.768 11.224C12.544 11.224 13.148 11.012 13.58 10.588C14.012 10.164 14.228 9.564 14.228 8.788C14.228 8.012 14.012 7.408 13.58 6.976C13.148 6.544 12.544 6.328 11.768 6.328H10.796V11.224H11.768ZM24.0748 6.304V13H22.0228V12.088C21.8148 12.384 21.5308 12.624 21.1708 12.808C20.8188 12.984 20.4268 13.072 19.9948 13.072C19.4828 13.072 19.0308 12.96 18.6388 12.736C18.2468 12.504 17.9428 12.172 17.7268 11.74C17.5108 11.308 17.4028 10.8 17.4028 10.216V6.304H19.4428V9.94C19.4428 10.388 19.5588 10.736 19.7908 10.984C20.0228 11.232 20.3348 11.356 20.7268 11.356C21.1268 11.356 21.4428 11.232 21.6748 10.984C21.9068 10.736 22.0228 10.388 22.0228 9.94V6.304H24.0748ZM28.5967 13.096C27.9407 13.096 27.3487 12.956 26.8207 12.676C26.3007 12.396 25.8887 11.996 25.5847 11.476C25.2887 10.956 25.1407 10.348 25.1407 9.652C25.1407 8.964 25.2927 8.36 25.5967 7.84C25.9007 7.312 26.3167 6.908 26.8447 6.628C27.3727 6.348 27.9647 6.208 28.6207 6.208C29.2767 6.208 29.8687 6.348 30.3967 6.628C30.9247 6.908 31.3407 7.312 31.6447 7.84C31.9487 8.36 32.1007 8.964 32.1007 9.652C32.1007 10.34 31.9447 10.948 31.6327 11.476C31.3287 11.996 30.9087 12.396 30.3727 12.676C29.8447 12.956 29.2527 13.096 28.5967 13.096ZM28.5967 11.32C28.9887 11.32 29.3207 11.176 29.5927 10.888C29.8727 10.6 30.0127 10.188 30.0127 9.652C30.0127 9.116 29.8767 8.704 29.6047 8.416C29.3407 8.128 29.0127 7.984 28.6207 7.984C28.2207 7.984 27.8887 8.128 27.6247 8.416C27.3607 8.696 27.2287 9.108 27.2287 9.652C27.2287 10.188 27.3567 10.6 27.6127 10.888C27.8767 11.176 28.2047 11.32 28.5967 11.32ZM35.2413 4.12V13H33.1893V4.12H35.2413ZM37.7604 5.608C37.4004 5.608 37.1044 5.504 36.8724 5.296C36.6484 5.08 36.5364 4.816 36.5364 4.504C36.5364 4.184 36.6484 3.92 36.8724 3.712C37.1044 3.496 37.4004 3.388 37.7604 3.388C38.1124 3.388 38.4004 3.496 38.6244 3.712C38.8564 3.92 38.9724 4.184 38.9724 4.504C38.9724 4.816 38.8564 5.08 38.6244 5.296C38.4004 5.504 38.1124 5.608 37.7604 5.608ZM38.7804 6.304V13H36.7284V6.304H38.7804ZM44.3474 6.232C45.1314 6.232 45.7554 6.488 46.2194 7C46.6914 7.504 46.9274 8.2 46.9274 9.088V13H44.8874V9.364C44.8874 8.916 44.7714 8.568 44.5394 8.32C44.3074 8.072 43.9954 7.948 43.6034 7.948C43.2114 7.948 42.8994 8.072 42.6674 8.32C42.4354 8.568 42.3194 8.916 42.3194 9.364V13H40.2674V6.304H42.3194V7.192C42.5274 6.896 42.8074 6.664 43.1594 6.496C43.5114 6.32 43.9074 6.232 44.3474 6.232ZM50.8974 6.208C51.3694 6.208 51.7814 6.304 52.1334 6.496C52.4934 6.688 52.7694 6.94 52.9614 7.252V6.304H55.0134V12.988C55.0134 13.604 54.8894 14.16 54.6414 14.656C54.4014 15.16 54.0294 15.56 53.5254 15.856C53.0294 16.152 52.4094 16.3 51.6654 16.3C50.6734 16.3 49.8694 16.064 49.2534 15.592C48.6374 15.128 48.2854 14.496 48.1974 13.696H50.2254C50.2894 13.952 50.4414 14.152 50.6814 14.296C50.9214 14.448 51.2174 14.524 51.5694 14.524C51.9934 14.524 52.3294 14.4 52.5774 14.152C52.8334 13.912 52.9614 13.524 52.9614 12.988V12.04C52.7614 12.352 52.4854 12.608 52.1334 12.808C51.7814 13 51.3694 13.096 50.8974 13.096C50.3454 13.096 49.8454 12.956 49.3974 12.676C48.9494 12.388 48.5934 11.984 48.3294 11.464C48.0734 10.936 47.9454 10.328 47.9454 9.64C47.9454 8.952 48.0734 8.348 48.3294 7.828C48.5934 7.308 48.9494 6.908 49.3974 6.628C49.8454 6.348 50.3454 6.208 50.8974 6.208ZM52.9614 9.652C52.9614 9.14 52.8174 8.736 52.5294 8.44C52.2494 8.144 51.9054 7.996 51.4974 7.996C51.0894 7.996 50.7414 8.144 50.4534 8.44C50.1734 8.728 50.0334 9.128 50.0334 9.64C50.0334 10.152 50.1734 10.56 50.4534 10.864C50.7414 11.16 51.0894 11.308 51.4974 11.308C51.9054 11.308 52.2494 11.16 52.5294 10.864C52.8174 10.568 52.9614 10.164 52.9614 9.652ZM59.5459 13.096C58.8899 13.096 58.2979 12.956 57.7699 12.676C57.2499 12.396 56.8379 11.996 56.5339 11.476C56.2379 10.956 56.0899 10.348 56.0899 9.652C56.0899 8.964 56.2419 8.36 56.5459 7.84C56.8499 7.312 57.2659 6.908 57.7939 6.628C58.3219 6.348 58.9139 6.208 59.5699 6.208C60.2259 6.208 60.8179 6.348 61.3459 6.628C61.8739 6.908 62.2899 7.312 62.5939 7.84C62.8979 8.36 63.0499 8.964 63.0499 9.652C63.0499 10.34 62.8939 10.948 62.5819 11.476C62.2779 11.996 61.8579 12.396 61.3219 12.676C60.7939 12.956 60.2019 13.096 59.5459 13.096ZM59.5459 11.32C59.9379 11.32 60.2699 11.176 60.5419 10.888C60.8219 10.6 60.9619 10.188 60.9619 9.652C60.9619 9.116 60.8259 8.704 60.5539 8.416C60.2899 8.128 59.9619 7.984 59.5699 7.984C59.1699 7.984 58.8379 8.128 58.5739 8.416C58.3099 8.696 58.1779 9.108 58.1779 9.652C58.1779 10.188 58.3059 10.6 58.5619 10.888C58.8259 11.176 59.1539 11.32 59.5459 11.32Z" fill="white"/>
</svg>
