<svg width="53" height="18" viewBox="0 0 53 18" fill="none" xmlns="http://www.w3.org/2000/svg">
<rect width="53" height="18" rx="2" fill="#FFCE00"/>
<path d="M14.336 7.24C14.184 6.96 13.964 6.748 13.676 6.604C13.396 6.452 13.064 6.376 12.68 6.376C12.016 6.376 11.484 6.596 11.084 7.036C10.684 7.468 10.484 8.048 10.484 8.776C10.484 9.552 10.692 10.16 11.108 10.6C11.532 11.032 12.112 11.248 12.848 11.248C13.352 11.248 13.776 11.12 14.12 10.864C14.472 10.608 14.728 10.24 14.888 9.76H12.284V8.248H16.748V10.156C16.596 10.668 16.336 11.144 15.968 11.584C15.608 12.024 15.148 12.38 14.588 12.652C14.028 12.924 13.396 13.06 12.692 13.06C11.86 13.06 11.116 12.88 10.46 12.52C9.812 12.152 9.304 11.644 8.936 10.996C8.576 10.348 8.396 9.608 8.396 8.776C8.396 7.944 8.576 7.204 8.936 6.556C9.304 5.9 9.812 5.392 10.46 5.032C11.108 4.664 11.848 4.48 12.68 4.48C13.688 4.48 14.536 4.724 15.224 5.212C15.92 5.7 16.38 6.376 16.604 7.24H14.336ZM27.4246 4.576V13H25.3726V7.948L23.4886 13H21.8326L19.9366 7.936V13H17.8846V4.576H20.3086L22.6726 10.408L25.0126 4.576H27.4246ZM34.1443 11.512H31.0003L30.4963 13H28.3483L31.3963 4.576H33.7723L36.8203 13H34.6483L34.1443 11.512ZM33.6163 9.928L32.5723 6.844L31.5403 9.928H33.6163ZM43.8079 4.576V6.22H41.5759V13H39.5239V6.22H37.2919V4.576H43.8079Z" fill="black"/>
</svg>
