<svg width="40" height="18" viewBox="0 0 40 18" fill="none" xmlns="http://www.w3.org/2000/svg">
<rect width="40" height="18" rx="2" fill="#630F54"/>
<path d="M14.336 7.24C14.184 6.96 13.964 6.748 13.676 6.604C13.396 6.452 13.064 6.376 12.68 6.376C12.016 6.376 11.484 6.596 11.084 7.036C10.684 7.468 10.484 8.048 10.484 8.776C10.484 9.552 10.692 10.16 11.108 10.6C11.532 11.032 12.112 11.248 12.848 11.248C13.352 11.248 13.776 11.12 14.12 10.864C14.472 10.608 14.728 10.24 14.888 9.76H12.284V8.248H16.748V10.156C16.596 10.668 16.336 11.144 15.968 11.584C15.608 12.024 15.148 12.38 14.588 12.652C14.028 12.924 13.396 13.06 12.692 13.06C11.86 13.06 11.116 12.88 10.46 12.52C9.812 12.152 9.304 11.644 8.936 10.996C8.576 10.348 8.396 9.608 8.396 8.776C8.396 7.944 8.576 7.204 8.936 6.556C9.304 5.9 9.812 5.392 10.46 5.032C11.108 4.664 11.848 4.48 12.68 4.48C13.688 4.48 14.536 4.724 15.224 5.212C15.92 5.7 16.38 6.376 16.604 7.24H14.336ZM22.1806 13L20.4286 9.82H19.9366V13H17.8846V4.576H21.3286C21.9926 4.576 22.5566 4.692 23.0206 4.924C23.4926 5.156 23.8446 5.476 24.0766 5.884C24.3086 6.284 24.4246 6.732 24.4246 7.228C24.4246 7.788 24.2646 8.288 23.9446 8.728C23.6326 9.168 23.1686 9.48 22.5526 9.664L24.4966 13H22.1806ZM19.9366 8.368H21.2086C21.5846 8.368 21.8646 8.276 22.0486 8.092C22.2406 7.908 22.3366 7.648 22.3366 7.312C22.3366 6.992 22.2406 6.74 22.0486 6.556C21.8646 6.372 21.5846 6.28 21.2086 6.28H19.9366V8.368ZM27.7648 6.22V7.924H30.5128V9.508H27.7648V11.356H30.8728V13H25.7128V4.576H30.8728V6.22H27.7648Z" fill="white"/>
</svg>
