<svg width="47" height="18" viewBox="0 0 47 18" fill="none" xmlns="http://www.w3.org/2000/svg">
<rect width="47" height="18" rx="2" fill="#E31837"/>
<path d="M10.796 4.576V13H8.744V4.576H10.796ZM14.3351 6.22V7.924H17.0831V9.508H14.3351V11.356H17.4431V13H12.2831V4.576H17.4431V6.22H14.3351ZM20.8273 11.416H23.5153V13H18.7753V4.576H20.8273V11.416ZM30.554 4.576V6.22H28.322V13H26.27V6.22H24.038V4.576H30.554ZM34.6318 13.084C34.0158 13.084 33.4638 12.984 32.9758 12.784C32.4878 12.584 32.0958 12.288 31.7998 11.896C31.5118 11.504 31.3598 11.032 31.3438 10.48H33.5278C33.5598 10.792 33.6678 11.032 33.8518 11.2C34.0358 11.36 34.2758 11.44 34.5718 11.44C34.8758 11.44 35.1158 11.372 35.2918 11.236C35.4678 11.092 35.5558 10.896 35.5558 10.648C35.5558 10.44 35.4838 10.268 35.3398 10.132C35.2038 9.996 35.0318 9.884 34.8238 9.796C34.6238 9.708 34.3358 9.608 33.9598 9.496C33.4158 9.328 32.9718 9.16 32.6278 8.992C32.2838 8.824 31.9878 8.576 31.7398 8.248C31.4918 7.92 31.3678 7.492 31.3678 6.964C31.3678 6.18 31.6518 5.568 32.2198 5.128C32.7878 4.68 33.5278 4.456 34.4398 4.456C35.3678 4.456 36.1158 4.68 36.6838 5.128C37.2518 5.568 37.5558 6.184 37.5958 6.976H35.3758C35.3598 6.704 35.2598 6.492 35.0758 6.34C34.8918 6.18 34.6558 6.1 34.3678 6.1C34.1198 6.1 33.9198 6.168 33.7678 6.304C33.6158 6.432 33.5398 6.62 33.5398 6.868C33.5398 7.14 33.6678 7.352 33.9238 7.504C34.1798 7.656 34.5798 7.82 35.1238 7.996C35.6678 8.18 36.1078 8.356 36.4438 8.524C36.7878 8.692 37.0838 8.936 37.3318 9.256C37.5798 9.576 37.7038 9.988 37.7038 10.492C37.7038 10.972 37.5798 11.408 37.3318 11.8C37.0918 12.192 36.7398 12.504 36.2758 12.736C35.8118 12.968 35.2638 13.084 34.6318 13.084Z" fill="white"/>
</svg>
