<svg width="38" height="18" viewBox="0 0 38 18" fill="none" xmlns="http://www.w3.org/2000/svg">
<rect width="38" height="18" rx="2" fill="#025F79"/>
<path d="M15.164 7.288C15.164 7.776 15.052 8.224 14.828 8.632C14.604 9.032 14.26 9.356 13.796 9.604C13.332 9.852 12.756 9.976 12.068 9.976H10.796V13H8.744V4.576H12.068C12.74 4.576 13.308 4.692 13.772 4.924C14.236 5.156 14.584 5.476 14.816 5.884C15.048 6.292 15.164 6.76 15.164 7.288ZM11.912 8.344C12.304 8.344 12.596 8.252 12.788 8.068C12.98 7.884 13.076 7.624 13.076 7.288C13.076 6.952 12.98 6.692 12.788 6.508C12.596 6.324 12.304 6.232 11.912 6.232H10.796V8.344H11.912ZM22.2923 4.576V6.22H20.0603V13H18.0083V6.22H15.7763V4.576H22.2923ZM25.3741 6.22V7.924H28.1221V9.508H25.3741V11.356H28.4821V13H23.3221V4.576H28.4821V6.22H25.3741Z" fill="white"/>
</svg>
