<svg width="40" height="18" viewBox="0 0 40 18" fill="none" xmlns="http://www.w3.org/2000/svg">
<rect width="40" height="18" rx="2" fill="#009CDE"/>
<path d="M11.792 13.084C11.176 13.084 10.624 12.984 10.136 12.784C9.648 12.584 9.256 12.288 8.96 11.896C8.672 11.504 8.52 11.032 8.504 10.48H10.688C10.72 10.792 10.828 11.032 11.012 11.2C11.196 11.36 11.436 11.44 11.732 11.44C12.036 11.44 12.276 11.372 12.452 11.236C12.628 11.092 12.716 10.896 12.716 10.648C12.716 10.44 12.644 10.268 12.5 10.132C12.364 9.996 12.192 9.884 11.984 9.796C11.784 9.708 11.496 9.608 11.12 9.496C10.576 9.328 10.132 9.16 9.788 8.992C9.444 8.824 9.148 8.576 8.9 8.248C8.652 7.92 8.528 7.492 8.528 6.964C8.528 6.18 8.812 5.568 9.38 5.128C9.948 4.68 10.688 4.456 11.6 4.456C12.528 4.456 13.276 4.68 13.844 5.128C14.412 5.568 14.716 6.184 14.756 6.976H12.536C12.52 6.704 12.42 6.492 12.236 6.34C12.052 6.18 11.816 6.1 11.528 6.1C11.28 6.1 11.08 6.168 10.928 6.304C10.776 6.432 10.7 6.62 10.7 6.868C10.7 7.14 10.828 7.352 11.084 7.504C11.34 7.656 11.74 7.82 12.284 7.996C12.828 8.18 13.268 8.356 13.604 8.524C13.948 8.692 14.244 8.936 14.492 9.256C14.74 9.576 14.864 9.988 14.864 10.492C14.864 10.972 14.74 11.408 14.492 11.8C14.252 12.192 13.9 12.504 13.436 12.736C12.972 12.968 12.424 13.084 11.792 13.084ZM21.3708 11.512H18.2268L17.7228 13H15.5748L18.6228 4.576H20.9988L24.0468 13H21.8748L21.3708 11.512ZM20.8428 9.928L19.7988 6.844L18.7668 9.928H20.8428ZM31.0345 4.576V6.22H28.8025V13H26.7505V6.22H24.5185V4.576H31.0345Z" fill="white"/>
</svg>
