<svg width="52" height="18" viewBox="0 0 52 18" fill="none" xmlns="http://www.w3.org/2000/svg">
<rect width="52" height="18" rx="2" fill="#3DAFCC"/>
<path d="M14.804 4.576V6.22H12.572V13H10.52V6.22H8.288V4.576H14.804ZM19.8178 13.084C19.0258 13.084 18.2978 12.9 17.6338 12.532C16.9778 12.164 16.4538 11.652 16.0618 10.996C15.6778 10.332 15.4858 9.588 15.4858 8.764C15.4858 7.94 15.6778 7.2 16.0618 6.544C16.4538 5.888 16.9778 5.376 17.6338 5.008C18.2978 4.64 19.0258 4.456 19.8178 4.456C20.6098 4.456 21.3338 4.64 21.9898 5.008C22.6538 5.376 23.1738 5.888 23.5498 6.544C23.9338 7.2 24.1258 7.94 24.1258 8.764C24.1258 9.588 23.9338 10.332 23.5498 10.996C23.1658 11.652 22.6458 12.164 21.9898 12.532C21.3338 12.9 20.6098 13.084 19.8178 13.084ZM19.8178 11.212C20.4898 11.212 21.0258 10.988 21.4258 10.54C21.8338 10.092 22.0378 9.5 22.0378 8.764C22.0378 8.02 21.8338 7.428 21.4258 6.988C21.0258 6.54 20.4898 6.316 19.8178 6.316C19.1378 6.316 18.5938 6.536 18.1858 6.976C17.7858 7.416 17.5858 8.012 17.5858 8.764C17.5858 9.508 17.7858 10.104 18.1858 10.552C18.5938 10.992 19.1378 11.212 19.8178 11.212ZM27.3194 6.22V7.924H30.0674V9.508H27.3194V11.356H30.4274V13H25.2674V4.576H30.4274V6.22H27.3194ZM37.2436 4.576V6.22H33.8116V7.996H36.3796V9.592H33.8116V13H31.7596V4.576H37.2436ZM40.3741 11.416H43.0621V13H38.3221V4.576H40.3741V11.416Z" fill="white"/>
</svg>
